<svg width="188" height="17" viewBox="0 0 188 17" fill="none" xmlns="http://www.w3.org/2000/svg">
<path d="M0.66093 16V0.489999H4.70893V16H0.66093ZM17.5684 0.489999H21.3524V16H18.3604L11.2764 7.134V16H7.51445V0.489999H10.4624L17.5684 9.356V0.489999ZM35.4948 0.489999H39.5868L32.5248 16H29.3128L22.2508 0.489999H26.4528L30.9628 10.962L35.4948 0.489999ZM40.5144 16V0.489999H51.5364V3.614H44.4524V6.562H51.0964V9.664H44.4524V12.876H51.5364V16H40.5144ZM59.0366 16.198C57.8779 16.198 56.7339 16.044 55.6046 15.736C54.4752 15.428 53.5586 15.0173 52.8546 14.504L54.1086 11.644C54.8566 12.1133 55.6559 12.4727 56.5066 12.722C57.3572 12.9713 58.2152 13.096 59.0806 13.096C59.9606 13.096 60.6279 12.9787 61.0826 12.744C61.5519 12.4947 61.7866 12.15 61.7866 11.71C61.7866 11.314 61.5739 10.9913 61.1486 10.742C60.7379 10.4927 59.9459 10.2433 58.7726 9.994C57.3206 9.686 56.1839 9.31933 55.3626 8.894C54.5412 8.46867 53.9619 7.97 53.6246 7.398C53.3019 6.826 53.1406 6.122 53.1406 5.286C53.1406 4.33267 53.4046 3.482 53.9326 2.734C54.4752 1.97133 55.2306 1.37733 56.1986 0.952C57.1812 0.511999 58.3032 0.291999 59.5646 0.291999C60.6792 0.291999 61.7572 0.453332 62.7986 0.775999C63.8546 1.084 64.6759 1.48733 65.2626 1.986L64.0306 4.846C62.6226 3.878 61.1412 3.394 59.5866 3.394C58.8386 3.394 58.2372 3.54067 57.7826 3.834C57.3279 4.11267 57.1006 4.48667 57.1006 4.956C57.1006 5.23467 57.1812 5.462 57.3426 5.638C57.5039 5.814 57.8046 5.99 58.2446 6.166C58.6846 6.32733 59.3372 6.496 60.2026 6.672C61.6106 6.98 62.7179 7.354 63.5246 7.794C64.3312 8.21933 64.9032 8.718 65.2406 9.29C65.5779 9.862 65.7466 10.544 65.7466 11.336C65.7466 12.8613 65.1599 14.0567 63.9866 14.922C62.8132 15.7727 61.1632 16.198 59.0366 16.198ZM71.2117 16V3.768H66.5697V0.489999H79.9457V3.768H75.3037V16H71.2117ZM88.1247 16.198C86.5407 16.198 85.162 15.8753 83.9887 15.23C82.83 14.57 81.9353 13.646 81.3047 12.458C80.674 11.2553 80.3587 9.84733 80.3587 8.234C80.3587 6.62067 80.674 5.22 81.3047 4.032C81.9353 2.82933 82.83 1.90533 83.9887 1.26C85.162 0.614666 86.5407 0.291999 88.1247 0.291999C89.7087 0.291999 91.08 0.614666 92.2387 1.26C93.412 1.90533 94.3067 2.82933 94.9227 4.032C95.5533 5.22 95.8687 6.62067 95.8687 8.234C95.8687 9.84733 95.5533 11.2553 94.9227 12.458C94.292 13.646 93.39 14.57 92.2167 15.23C91.058 15.8753 89.694 16.198 88.1247 16.198ZM88.1247 13.096C89.298 13.096 90.2147 12.6853 90.8747 11.864C91.5347 11.028 91.8647 9.818 91.8647 8.234C91.8647 6.65 91.5273 5.44733 90.8527 4.626C90.1927 3.80467 89.2833 3.394 88.1247 3.394C86.9513 3.394 86.0347 3.80467 85.3747 4.626C84.7147 5.43267 84.3847 6.63533 84.3847 8.234C84.3847 9.83267 84.7147 11.0427 85.3747 11.864C86.0347 12.6853 86.9513 13.096 88.1247 13.096ZM112.212 16H107.768L105.084 11.05C104.747 10.478 104.212 10.192 103.478 10.192H102.246V16H98.2644V0.489999H105.656C107.534 0.489999 108.942 0.900666 109.88 1.722C110.834 2.52867 111.31 3.702 111.31 5.242C111.31 6.41533 110.988 7.41267 110.342 8.234C109.697 9.04067 108.788 9.58333 107.614 9.862C108.509 10.0527 109.22 10.632 109.748 11.6L112.212 16ZM105.018 7.156C105.913 7.156 106.551 7.01667 106.932 6.738C107.328 6.45933 107.526 6.00467 107.526 5.374C107.526 4.72867 107.328 4.26667 106.932 3.988C106.551 3.69467 105.913 3.548 105.018 3.548H102.202V7.156H105.018Z" fill="#E4CB14"/>
<path d="M132.654 0.489999H135.778V16H132.258V7.86L129.266 13.426H126.67L123.7 7.992L123.678 16H120.158V0.489999H123.348L128.012 9.312L132.654 0.489999ZM146.004 16.198C144.42 16.198 143.041 15.8753 141.868 15.23C140.709 14.57 139.814 13.646 139.184 12.458C138.553 11.2553 138.238 9.84733 138.238 8.234C138.238 6.62067 138.553 5.22 139.184 4.032C139.814 2.82933 140.709 1.90533 141.868 1.26C143.041 0.614666 144.42 0.291999 146.004 0.291999C147.588 0.291999 148.959 0.614666 150.118 1.26C151.291 1.90533 152.186 2.82933 152.802 4.032C153.432 5.22 153.748 6.62067 153.748 8.234C153.748 9.84733 153.432 11.2553 152.802 12.458C152.171 13.646 151.269 14.57 150.096 15.23C148.937 15.8753 147.573 16.198 146.004 16.198ZM146.004 13.096C147.177 13.096 148.094 12.6853 148.754 11.864C149.414 11.028 149.744 9.818 149.744 8.234C149.744 6.65 149.406 5.44733 148.732 4.626C148.072 3.80467 147.162 3.394 146.004 3.394C144.83 3.394 143.914 3.80467 143.254 4.626C142.594 5.43267 142.264 6.63533 142.264 8.234C142.264 9.83267 142.594 11.0427 143.254 11.864C143.914 12.6853 144.83 13.096 146.004 13.096ZM166.197 0.489999H169.981V16H166.989L159.905 7.134V16H156.143V0.489999H159.091L166.197 9.356V0.489999ZM187.886 16H183.09L176.842 8.982V16H172.794V0.489999H176.842V7.156L182.914 0.489999H187.644L180.802 7.86L187.886 16Z" fill="#FF8A00"/>
</svg>
