<svg width="267" height="452" viewBox="0 0 267 452" fill="none" xmlns="http://www.w3.org/2000/svg">
<path d="M146.189 253.859L162.523 232.365C162.523 232.365 150.739 225.162 137.322 230.622C124.255 235.967 104.538 227.485 104.538 227.485C104.538 227.485 105.238 240.149 114.221 251.303C123.205 262.572 146.189 253.859 146.189 253.859Z" fill="#4C911F"/>
<path d="M132.189 251.419C126.005 246.074 121.688 238.406 118.888 231.668C110.955 230.274 104.538 227.485 104.538 227.485C104.538 227.485 105.238 240.149 114.221 251.303C118.655 256.763 126.355 257.46 133.005 256.763C134.872 255.485 134.872 253.742 132.189 251.419Z" fill="#3D7E12"/>
<path d="M214.092 363.651C205.342 309.859 172.674 303.352 146.189 253.859H130.205H114.221C87.7369 303.236 55.0689 309.859 46.3186 363.651C37.5682 417.444 99.6374 417.444 99.6374 417.444H130.205H160.773C160.773 417.444 222.842 417.444 214.092 363.651Z" fill="#4C911F"/>
<path d="M131.839 392.929C70.3529 385.61 92.2871 343.435 112.355 302.772C121.455 284.298 127.989 267.22 132.305 253.859H130.089H114.221C87.7369 303.236 55.0689 309.859 46.3186 363.651C37.5682 417.444 99.6374 417.444 99.6374 417.444H130.205H160.773C160.773 417.444 220.042 417.444 214.559 367.137C204.058 386.655 176.991 398.274 131.839 392.929Z" fill="#3D7E12"/>
<path d="M148.523 260.83H112.004C111.304 260.83 110.604 260.597 110.021 260.133C109.204 259.552 108.738 258.622 108.738 257.577C108.738 256.996 108.854 256.415 109.204 255.95C109.788 255.021 110.838 254.323 112.004 254.323H148.523C149.573 254.323 150.506 254.788 151.089 255.485C151.556 256.066 151.789 256.763 151.789 257.577C151.789 258.274 151.556 258.971 151.206 259.552C150.506 260.365 149.573 260.83 148.523 260.83Z" fill="#663E31"/>
<path d="M151.089 256.531C150.506 257.344 149.573 257.809 148.406 257.809H112.004C111.304 257.809 110.604 257.577 110.021 257.112C109.671 256.763 109.321 256.415 109.088 256.066C108.854 256.531 108.738 256.996 108.738 257.577C108.738 258.622 109.204 259.552 110.021 260.133C110.604 260.597 111.304 260.83 112.004 260.83H148.523C149.573 260.83 150.506 260.249 151.206 259.552C151.556 258.971 151.789 258.39 151.789 257.577C151.789 256.996 151.673 256.531 151.439 256.066C151.323 256.299 151.206 256.415 151.089 256.531Z" fill="#4C3025"/>
<path d="M148.523 254.324H112.004C111.304 254.324 110.604 254.091 110.021 253.626C109.204 253.046 108.738 252.116 108.738 251.07C108.738 250.49 108.854 249.909 109.204 249.444C109.788 248.514 110.838 247.817 112.004 247.817H148.523C149.573 247.817 150.506 248.282 151.089 248.979C151.556 249.56 151.789 250.257 151.789 251.07C151.789 251.768 151.556 252.465 151.206 253.046C150.506 253.859 149.573 254.324 148.523 254.324Z" fill="#663E31"/>
<path d="M151.089 250.025C150.506 250.838 149.573 251.303 148.406 251.303H112.004C111.304 251.303 110.604 251.071 110.021 250.606C109.671 250.257 109.321 249.909 109.088 249.56C108.854 250.025 108.738 250.49 108.738 251.071C108.738 252.116 109.204 253.046 110.021 253.627C110.604 254.091 111.304 254.324 112.004 254.324H148.523C149.573 254.324 150.506 253.743 151.206 253.046C151.556 252.465 151.789 251.884 151.789 251.071C151.789 250.49 151.673 250.025 151.439 249.56C151.323 249.793 151.206 249.909 151.089 250.025Z" fill="#4C3025"/>
</svg>
