<svg width="16" height="16" viewBox="0 0 16 16" fill="none" xmlns="http://www.w3.org/2000/svg">
<path d="M1.71436 5.78518L7.80236 8.95146C7.86342 8.98322 7.93124 8.99979 8.00007 8.99979C8.0689 8.99979 8.13672 8.98322 8.19778 8.95146L14.2858 5.78575V11.2857C14.2858 11.7601 14.1043 12.2165 13.7785 12.5613C13.4528 12.9061 13.0074 13.1132 12.5338 13.14L12.4286 13.1429H3.5715C3.09713 13.1429 2.64074 12.9614 2.29594 12.6357C1.95114 12.3099 1.74407 11.8645 1.71721 11.3909L1.71436 11.2857V5.78518ZM3.5715 2.85718H12.4286C12.903 2.85715 13.3594 3.03864 13.7042 3.36442C14.049 3.6902 14.2561 4.13557 14.2829 4.60918L14.2858 4.71432V4.81946L8.00007 8.08803L1.71436 4.81946V4.71432C1.71432 4.23996 1.89581 3.78356 2.2216 3.43876C2.54738 3.09396 2.99275 2.88689 3.46636 2.86003L3.5715 2.85718H12.4286H3.5715Z" fill="url(#paint0_linear_39:2821)"/>
<defs>
<linearGradient id="paint0_linear_39:2821" x1="15.1135" y1="20.1026" x2="1.53054" y2="8.48753" gradientUnits="userSpaceOnUse">
<stop stop-color="#27A7F9"/>
<stop offset="1" stop-color="#4FCCF9"/>
</linearGradient>
</defs>
</svg>
