<svg width="100" height="91" viewBox="0 0 100 91" fill="none" xmlns="http://www.w3.org/2000/svg">
<path d="M64.5115 29.009V7.3931H98.4011V29.009H64.5115Z" fill="#FF9201"/>
<path d="M98.4011 29.0112L84.2466 18.0492C82.5169 16.8599 80.2269 16.8536 78.4903 18.0322C73.6265 21.3339 64.5115 29.0112 64.5115 29.0112H98.4011Z" fill="#BCDCFF"/>
<path d="M79.0451 17.7148H78.946L64.5109 7.39899L64.5115 29.0114C64.5115 29.0114 73.6265 21.3341 78.4897 18.0324C78.6686 17.9113 78.8562 17.8109 79.0451 17.7148Z" fill="#A7D0FE"/>
<path d="M83.9667 17.7128H83.6699C83.8663 17.8132 84.0608 17.9199 84.246 18.0473L98.4012 29.0093V7.39688L83.9667 17.7128Z" fill="#A7D0FE"/>
<path d="M98.4009 7.39767L84.2463 18.3597C82.5167 19.549 80.2266 19.5553 78.4901 18.3767C73.6263 15.0749 64.5112 7.39767 64.5112 7.39767H98.4009Z" fill="white"/>
<g clip-path="url(#clip0_2:2186)">
<path d="M84.7902 35.6805L58.8623 10.3339C55.6251 7.16848 50.4122 7.16848 47.1751 10.3339L21.2471 35.6805V76.2104H84.7902V35.6805Z" fill="#FF9201"/>
<rect x="30.2689" y="17.0614" width="45.5" height="59.15" rx="2.275" fill="white"/>
<g clip-path="url(#clip1_2:2186)">
<path fill-rule="evenodd" clip-rule="evenodd" d="M41.6438 37.2523C43.9997 37.2523 45.9095 35.3426 45.9095 32.9867C45.9095 30.6309 43.9997 28.7211 41.6438 28.7211C39.288 28.7211 37.3782 30.6309 37.3782 32.9867C37.3782 35.3426 39.288 37.2523 41.6438 37.2523ZM41.6438 39.8117C45.4132 39.8117 48.4688 36.7561 48.4688 32.9867C48.4688 29.2174 45.4132 26.1617 41.6438 26.1617C37.8745 26.1617 34.8188 29.2174 34.8188 32.9867C34.8188 36.7561 37.8745 39.8117 41.6438 39.8117Z" fill="#2EC5CE"/>
<rect x="50.7438" y="29.0062" width="20.475" height="3.4125" rx="0.284375" fill="#2EC5CE"/>
<rect opacity="0.4" x="50.7438" y="34.1253" width="9.1" height="2.84375" rx="0.284375" fill="#2EC5CE"/>
</g>
<path d="M84.7902 76.211L58.2504 55.6572C55.0073 53.4273 50.7135 53.4155 47.4575 55.6254C38.3379 61.8161 21.2471 76.211 21.2471 76.211H84.7902Z" fill="#FFDC81"/>
<path d="M48.4977 55.0305H48.3118L21.2471 36.2029V76.2115C21.2471 76.2115 38.3379 61.8166 47.4563 55.6259C47.7917 55.3988 48.1435 55.2105 48.4977 55.0305Z" fill="#FFCA00"/>
<path d="M57.7258 55.0305H57.1693C57.5376 55.2187 57.9023 55.4188 58.2495 55.6577L84.7905 76.2115V36.2029L57.7258 55.0305Z" fill="#FFB800"/>
</g>
<path d="M1.38025 83.6101V61.9942H35.2699V83.6101H1.38025Z" fill="#FF9201"/>
<path d="M35.2698 83.611L21.1153 72.649C19.3856 71.4597 17.0956 71.4534 15.359 72.632C10.4953 75.9338 1.38019 83.611 1.38019 83.611H35.2698Z" fill="#BCDCFF"/>
<path d="M15.9139 72.3131H15.8147L1.3797 61.9972L1.38026 83.6096C1.38026 83.6096 10.4953 75.9324 15.3585 72.6306C15.5373 72.5095 15.725 72.4091 15.9139 72.3131Z" fill="#A7D0FE"/>
<path d="M20.8354 72.3126H20.5386C20.735 72.413 20.9296 72.5197 21.1147 72.6471L35.2699 83.6091V61.9967L20.8354 72.3126Z" fill="#A7D0FE"/>
<path d="M35.2696 61.9975L21.115 72.9595C19.3854 74.1488 17.0953 74.1551 15.3588 72.9765C10.495 69.6748 1.37994 61.9975 1.37994 61.9975H35.2696Z" fill="white"/>
<circle cx="82.5937" cy="69.386" r="13.65" fill="white"/>
<g opacity="0.4">
<path d="M86.0062 65.238C86.0062 67.2547 84.3693 68.8895 82.35 68.8895C80.3307 68.8895 78.6937 67.2547 78.6937 65.238C78.6937 63.2214 80.3307 61.5865 82.35 61.5865C84.3693 61.5865 86.0062 63.2214 86.0062 65.238Z" fill="#2EC5CE"/>
<path d="M89.4187 77.1663C89.4187 77.1663 84.8192 77.2118 81.8625 77.1663C79.4754 77.1296 75.7687 77.1663 75.7687 77.1663C75.7687 77.1663 76.7437 69.8633 82.5937 69.8633C88.4437 69.8633 89.4187 77.1663 89.4187 77.1663Z" fill="#2EC5CE"/>
</g>
<circle cx="92.8312" cy="59.1502" r="5.6875" fill="#2EC5CE"/>
<path fill-rule="evenodd" clip-rule="evenodd" d="M92.8312 56.4963C93.0145 56.4963 93.163 56.6448 93.163 56.8281V58.8187H95.1536C95.3369 58.8187 95.4854 58.9672 95.4854 59.1505C95.4854 59.3337 95.3369 59.4822 95.1536 59.4822H93.163V61.4729C93.163 61.6561 93.0145 61.8046 92.8312 61.8046C92.648 61.8046 92.4995 61.6561 92.4995 61.4729V59.4822H90.5088C90.3256 59.4822 90.1771 59.3337 90.1771 59.1505C90.1771 58.9672 90.3256 58.8187 90.5088 58.8187H92.4995V56.8281C92.4995 56.6448 92.648 56.4963 92.8312 56.4963Z" fill="white"/>
<defs>
<clipPath id="clip0_2:2186">
<rect width="68.25" height="68.25" fill="white" transform="translate(18.8937 7.96217)"/>
</clipPath>
<clipPath id="clip1_2:2186">
<rect width="36.4" height="13.65" fill="white" transform="translate(34.8188 26.1617)"/>
</clipPath>
</defs>
</svg>
