<svg width="24" height="24" viewBox="0 0 24 24" fill="none" xmlns="http://www.w3.org/2000/svg">
<path d="M12 7.19274C9.33986 7.19274 7.19299 9.33961 7.19299 11.9998C7.19299 14.6599 9.33986 16.8068 12 16.8068C14.6602 16.8068 16.8071 14.6599 16.8071 11.9998C16.8071 9.33961 14.6602 7.19274 12 7.19274ZM12 15.124C10.2797 15.124 8.8758 13.7201 8.8758 11.9998C8.8758 10.2795 10.2797 8.87555 12 8.87555C13.7203 8.87555 15.1242 10.2795 15.1242 11.9998C15.1242 13.7201 13.7203 15.124 12 15.124ZM17.0039 5.87555C16.3828 5.87555 15.8813 6.37711 15.8813 6.99821C15.8813 7.6193 16.3828 8.12086 17.0039 8.12086C17.625 8.12086 18.1266 7.62164 18.1266 6.99821C18.1268 6.85073 18.0979 6.70466 18.0415 6.56837C17.9851 6.43208 17.9025 6.30824 17.7982 6.20396C17.6939 6.09967 17.5701 6.01698 17.4338 5.96063C17.2975 5.90428 17.1514 5.87537 17.0039 5.87555V5.87555ZM21.3703 11.9998C21.3703 10.706 21.3821 9.42399 21.3094 8.13258C21.2367 6.63258 20.8946 5.30133 19.7977 4.20446C18.6985 3.10524 17.3696 2.76539 15.8696 2.69274C14.5758 2.62008 13.2938 2.6318 12.0024 2.6318C10.7086 2.6318 9.42658 2.62008 8.13518 2.69274C6.63518 2.76539 5.30393 3.10758 4.20705 4.20446C3.10783 5.30368 2.76799 6.63258 2.69533 8.13258C2.62268 9.42633 2.63439 10.7084 2.63439 11.9998C2.63439 13.2912 2.62268 14.5756 2.69533 15.867C2.76799 17.367 3.11018 18.6982 4.20705 19.7951C5.30627 20.8943 6.63518 21.2341 8.13518 21.3068C9.42893 21.3795 10.711 21.3677 12.0024 21.3677C13.2961 21.3677 14.5781 21.3795 15.8696 21.3068C17.3696 21.2341 18.7008 20.892 19.7977 19.7951C20.8969 18.6959 21.2367 17.367 21.3094 15.867C21.3844 14.5756 21.3703 13.2935 21.3703 11.9998V11.9998ZM19.3078 17.5263C19.1367 17.9529 18.9305 18.2716 18.6 18.5998C18.2696 18.9302 17.9531 19.1365 17.5266 19.3076C16.2938 19.7974 13.3664 19.6873 12 19.6873C10.6336 19.6873 7.70393 19.7974 6.47111 19.3099C6.04455 19.1388 5.7258 18.9326 5.39768 18.6021C5.06721 18.2716 4.86096 17.9552 4.68986 17.5287C4.20236 16.2935 4.31252 13.3662 4.31252 11.9998C4.31252 10.6334 4.20236 7.70368 4.68986 6.47086C4.86096 6.0443 5.06721 5.72555 5.39768 5.39743C5.72814 5.0693 6.04455 4.86071 6.47111 4.68961C7.70393 4.20211 10.6336 4.31227 12 4.31227C13.3664 4.31227 16.2961 4.20211 17.5289 4.68961C17.9555 4.86071 18.2742 5.06696 18.6024 5.39743C18.9328 5.72789 19.1391 6.0443 19.3102 6.47086C19.7977 7.70368 19.6875 10.6334 19.6875 11.9998C19.6875 13.3662 19.7977 16.2935 19.3078 17.5263Z" fill="#2997F9"/>
</svg>
