<svg width="160" height="160" viewBox="0 0 160 160" fill="none" xmlns="http://www.w3.org/2000/svg">
<g clip-path="url(#clip0_2:806)">
<path opacity="0.15" d="M62 75.7999L15 103.1L84.9 143.4L131.9 116L62 75.7999Z" fill="#2E3BBB"/>
<path d="M80.8 115.1L128.7 87.2L130.2 90.9L82.3 118.7L80.8 115.1Z" fill="#5A43B7"/>
<path d="M80.8 115.1L82.3 118.7L60 122.2L59.3 121.4C58.6 120.6 42.7 102.3 38.5 97.3999L19.3 100.4L17.8 96.7999L39.3 93.4999C39.3 93.4999 57.2 114.3 60.7 118.3L80.8 115.1Z" fill="#7258D8"/>
<path d="M17 94.9L64.9 67L86.4 63.7L38.5 91.5L17 94.9Z" fill="url(#paint0_linear_2:806)"/>
<path d="M59.9 116.4L107.8 88.5C105.7 86.1 86.4 63.7 86.4 63.7L38.5 91.5C38.5 91.5 57.9 114 59.9 116.4Z" fill="url(#paint1_linear_2:806)"/>
<path d="M80 113.2L127.9 85.4L129.4 89L81.5 116.9L80 113.2Z" fill="#7258D8"/>
<path d="M59.9 116.4L107.8 88.5L127.9 85.4L80 113.2L59.9 116.4Z" fill="url(#paint2_linear_2:806)"/>
<path d="M80 113.2L81.5 116.8L60 120.2L59.3 119.4C58.6 118.6 42.7 100.3 38.5 95.4L18.5 98.5L17 94.9L38.5 91.6C38.5 91.6 56.4 112.4 59.9 116.4L80 113.2Z" fill="#8B71EE"/>
<path d="M77.9 98.3L69.6 93.5L59.7 74.3L68 79.1L77.9 98.3Z" fill="url(#paint3_linear_2:806)"/>
<path d="M77.7 24.9C90 17.8 100 23.5 100 37.6C100 47.7 94.9 59.4 87.5 67.9L77.8 98.3L68 79.1C60.6 79.2 55.4 73.4 55.4 63.3C55.4 49.2 65.4 32 77.7 24.9Z" fill="url(#paint4_linear_2:806)"/>
<path d="M85.2 18.5C81.1 16.1 75.5 16.5 69.3 20.1C57 27.2 47.1 44.4 47.1 58.6C47.1 65.6 49.6 70.6 53.6 72.9L61.9 77.7C57.9 75.4 55.4 70.4 55.4 63.4C55.4 49.3 65.3 32 77.6 24.9C83.9 21.3 89.5 21 93.5 23.3C90.8 21.7 88 20.1 85.2 18.5Z" fill="url(#paint5_linear_2:806)"/>
<path d="M77.7 37.5C83.9 33.9 89 36.8 89 44C89 51.2 84 59.9 77.7 63.5C71.5 67.1 66.4 64.2 66.4 57C66.4 49.8 71.5 41.1 77.7 37.5Z" fill="white"/>
</g>
<defs>
<linearGradient id="paint0_linear_2:806" x1="25.4554" y1="72.5961" x2="39.9588" y2="127.18" gradientUnits="userSpaceOnUse">
<stop stop-color="#AB58D8"/>
<stop offset="1" stop-color="#FF86D8"/>
</linearGradient>
<linearGradient id="paint1_linear_2:806" x1="112.318" y1="152.144" x2="42.1275" y2="87.7201" gradientUnits="userSpaceOnUse">
<stop stop-color="#AB58D8"/>
<stop offset="1" stop-color="#FF86D8"/>
</linearGradient>
<linearGradient id="paint2_linear_2:806" x1="68.1848" y1="94.2391" x2="82.7704" y2="148.372" gradientUnits="userSpaceOnUse">
<stop stop-color="#AB58D8"/>
<stop offset="1" stop-color="#FF86D8"/>
</linearGradient>
<linearGradient id="paint3_linear_2:806" x1="61.8602" y1="81.1356" x2="83.7043" y2="109.219" gradientUnits="userSpaceOnUse">
<stop stop-color="#2790F9"/>
<stop offset="1" stop-color="#31B0F9"/>
</linearGradient>
<linearGradient id="paint4_linear_2:806" x1="102.937" y1="150.032" x2="31.4234" y2="120.845" gradientUnits="userSpaceOnUse">
<stop stop-color="#27A7F9"/>
<stop offset="1" stop-color="#4FCCF9"/>
</linearGradient>
<linearGradient id="paint5_linear_2:806" x1="52.6074" y1="34.2793" x2="107.759" y2="105.737" gradientUnits="userSpaceOnUse">
<stop stop-color="#2790F9"/>
<stop offset="1" stop-color="#31B0F9"/>
</linearGradient>
<clipPath id="clip0_2:806">
<rect width="130.2" height="126.4" fill="white" transform="translate(15 17)"/>
</clipPath>
</defs>
</svg>
