<svg width="267" height="452" viewBox="0 0 267 452" fill="none" xmlns="http://www.w3.org/2000/svg">
<path d="M106.493 310.288C106.493 310.288 99.6159 301.349 98.6607 295.045C97.7056 288.741 90.9242 271.71 98.6607 258.914C106.397 246.117 114.468 244 128.652 244C142.836 244 154.154 245.505 158.643 254.726C163.18 263.948 164.565 298.997 153.39 310.852C142.215 322.755 106.493 310.288 106.493 310.288Z" fill="#212021"/>
<path d="M136.433 451C189.691 451 232.866 442.941 232.866 433C232.866 423.059 189.691 415 136.433 415C83.1745 415 40 423.059 40 433C40 442.941 83.1745 451 136.433 451Z" fill="black"/>
<path d="M163.525 413.095C138.563 430.556 103.719 424.73 103.719 424.73L110.684 359.556L109.667 352.403L107.211 335.114C111.855 332.787 122.311 329.287 122.311 329.287V318.806H140.309L140.884 328.114L145.336 329.037L159.5 335.114C159.5 335.114 157.73 358.383 157.73 361.287C157.73 364.21 163.525 413.095 163.525 413.095Z" fill="#FFC098"/>
<path opacity="0.3" d="M145.854 329.153C144.645 331.268 142.362 334.037 138.217 336.037C133.267 338.403 125.669 339.653 114.042 337.287C114.042 337.287 114.541 342.114 115.711 350.076C116.363 354.48 117.227 359.864 118.34 365.922C120.719 378.96 120.22 406.153 123.156 425.518C111.893 426.095 103.719 424.73 103.719 424.73L110.684 359.556L109.667 352.403L107.211 335.114C111.855 332.787 122.311 329.287 122.311 329.287V318.806H140.309L140.884 328.114L145.336 329.037L145.854 329.153Z" fill="black"/>
<path opacity="0.3" d="M154.469 330.943C152.511 345.789 147.542 378.404 139.944 392.5C139.944 392.5 150.535 358.827 152.607 330.558L154.469 330.943Z" fill="black"/>
<path opacity="0.3" d="M158.248 367.058C157.001 378.635 153.279 403.615 143.532 422.327C142.515 422.615 141.498 422.865 140.5 423.115C144.913 412.577 153.26 389.769 157.845 359.154C157.769 360.192 157.711 360.942 157.711 361.308C157.73 361.846 157.922 363.962 158.248 367.058Z" fill="black"/>
<path d="M145.336 329.057C142.266 332.576 129.986 345.499 109.687 352.403L107.231 335.115C111.874 332.788 122.331 329.288 122.331 329.288V318.807H140.328L140.903 328.115L145.336 329.057Z" fill="#FFC098"/>
<path opacity="0.05" d="M145.336 329.058C144.203 330.365 141.805 332.942 138.198 336.038C133.248 338.404 125.65 339.654 114.023 337.288C114.023 337.288 114.521 342.115 115.692 350.077C113.773 350.904 111.759 351.692 109.667 352.384L107.211 335.096C111.855 332.769 122.311 329.269 122.311 329.269V318.788H140.309L140.884 328.096L145.336 329.058Z" fill="black"/>
<path d="M155.524 311.424C157.519 312.597 159.668 311.963 161.51 310.386C165.136 307.29 167.592 300.54 165.366 296.732C164.503 295.232 163.486 294.597 162.45 294.501C159.495 294.174 156.406 298.078 156.406 298.078C156.406 298.078 149.633 307.924 155.524 311.424Z" fill="#FFC098"/>
<path opacity="0.05" d="M155.524 311.424C157.519 312.597 159.668 311.962 161.51 310.385C159.534 310.654 158.479 309.866 159.591 308.289C161.05 306.231 165.041 302.25 164.542 299.827C164.062 297.404 160.666 300.116 160.666 300.116C160.378 297.174 161.414 295.462 162.431 294.5C159.476 294.174 156.387 298.077 156.387 298.077C156.387 298.077 149.633 307.924 155.524 311.424Z" fill="black"/>
<path d="M156.56 306.077C156.522 305.058 156.752 304.058 157.097 303.115C157.462 302.173 157.961 301.25 158.651 300.462C159.342 299.673 160.205 298.981 161.222 298.615C162.258 298.269 163.371 298.288 164.311 298.692C163.314 298.962 162.489 299.25 161.76 299.731C161.03 300.212 160.436 300.827 159.841 301.481C159.246 302.135 158.728 302.885 158.21 303.654C157.673 304.442 157.155 305.25 156.56 306.077Z" fill="#DD9973"/>
<path d="M107.518 311.424C105.523 312.597 103.374 311.962 101.532 310.385C97.9059 307.289 95.45 300.539 97.6756 296.731C98.539 295.231 99.5559 294.597 100.592 294.501C103.547 294.174 106.636 298.078 106.636 298.078C106.636 298.078 113.428 307.924 107.518 311.424Z" fill="#FFC098"/>
<path opacity="0.05" d="M107.518 311.423C105.523 312.596 103.374 311.962 101.532 310.385C103.508 310.654 104.564 309.866 103.451 308.289C101.993 306.231 98.0018 302.25 98.5006 299.827C98.9803 297.404 102.376 300.116 102.376 300.116C102.664 297.173 101.628 295.462 100.611 294.5C103.566 294.173 106.655 298.077 106.655 298.077C106.655 298.077 113.428 307.923 107.518 311.423Z" fill="black"/>
<path d="M106.482 306.077C105.887 305.25 105.369 304.442 104.851 303.673C104.333 302.904 103.796 302.154 103.221 301.5C102.645 300.846 102.031 300.231 101.302 299.75C100.573 299.288 99.7477 298.981 98.75 298.712C99.671 298.308 100.803 298.269 101.839 298.635C102.856 299 103.739 299.692 104.41 300.481C105.101 301.269 105.6 302.173 105.964 303.135C106.29 304.058 106.521 305.058 106.482 306.077Z" fill="#DD9973"/>
<path d="M153.068 267.116C156.771 270.943 158.651 276.193 158.364 281.519C157.865 290.558 156.905 305.846 155.812 310.039C154.258 316.039 144.683 325.923 131.483 330.731C131.425 330.75 131.349 330.789 131.291 330.808C131.214 330.789 131.157 330.769 131.08 330.731C117.86 325.943 108.305 316.058 106.751 310.039C105.657 305.846 104.698 290.558 104.199 281.519C103.911 276.193 105.792 270.943 109.495 267.116C118.378 257.923 128.912 257.077 131.08 257C131.157 257 131.233 257 131.291 257C131.349 257 131.406 257 131.483 257C133.67 257.077 144.204 257.923 153.068 267.116Z" fill="#FFC098"/>
<path opacity="0.05" d="M158.095 286.404C158.018 287.5 157.961 288.654 157.884 289.808C155.965 288.577 149.653 285.481 136.625 287.135C120.546 289.193 114.023 283.443 111.164 294.366C108.42 304.808 120.527 329.5 133.152 330.058C132.615 330.269 132.078 330.481 131.521 330.693C131.464 330.731 131.387 330.75 131.31 330.769C131.233 330.75 131.176 330.731 131.099 330.693C117.879 325.904 108.324 316.019 106.77 310.019C105.677 305.827 104.717 290.539 104.218 281.5C103.931 276.173 105.811 270.923 109.514 267.096C118.378 257.923 128.912 257.077 131.08 257C131.157 257 131.233 257 131.291 257C131.348 257 131.406 257 131.502 257C132.557 257.039 135.589 257.25 139.445 258.519C130.332 259.481 115.174 262.366 110.876 271.154C104.602 283.981 127.358 286.712 142.208 284.808C149.71 283.846 154.833 285.019 158.095 286.404Z" fill="black"/>
<path d="M116.671 310.193C117.285 310.962 117.898 311.75 118.474 312.539L118.321 312.404C119.376 312.673 120.45 312.923 121.525 313.116C122.062 313.231 122.599 313.308 123.136 313.423C123.674 313.5 124.211 313.577 124.767 313.673C126.935 313.981 129.104 314.193 131.272 314.27C133.44 314.366 135.627 314.289 137.795 314.096C139.983 313.943 142.112 313.481 144.28 313.02L144.223 313.058C144.607 312.77 145.009 312.5 145.393 312.212C145.086 312.577 144.76 312.943 144.453 313.308L144.434 313.327L144.395 313.346C143.877 313.577 143.359 313.789 142.841 314L142.055 314.308L141.249 314.558C140.712 314.712 140.174 314.885 139.618 315.039L137.968 315.366C137.411 315.5 136.855 315.558 136.299 315.616C135.742 315.673 135.186 315.77 134.61 315.789C133.478 315.846 132.346 315.885 131.233 315.846C128.988 315.77 126.724 315.52 124.537 315.039C122.331 314.558 120.182 313.923 118.11 313L117.994 312.943L117.956 312.866C117.496 311.981 117.073 311.077 116.671 310.193Z" fill="#DD9973"/>
<path d="M127.204 317.596L131.444 317.712C132.135 317.712 132.826 317.731 133.536 317.769C133.9 317.789 134.246 317.789 134.61 317.846C134.975 317.885 135.358 317.904 135.742 318C135.109 318.481 134.399 318.808 133.67 319.019C132.941 319.231 132.173 319.327 131.406 319.308C130.639 319.289 129.871 319.154 129.142 318.904C128.432 318.596 127.722 318.212 127.204 317.596Z" fill="#DD9973"/>
<path d="M126.149 306.308C126.513 307.423 127.396 307.981 128.317 308.346C129.257 308.712 130.255 308.846 131.272 308.846C132.289 308.827 133.286 308.692 134.226 308.327C135.147 307.962 136.03 307.404 136.414 306.289C136.586 306.865 136.452 307.519 136.126 308.077C135.8 308.635 135.339 309.077 134.802 309.423C133.747 310.115 132.5 310.404 131.272 310.423C130.044 310.404 128.797 310.115 127.741 309.423C127.223 309.077 126.744 308.615 126.417 308.077C126.13 307.539 125.976 306.865 126.149 306.308Z" fill="#DD9973"/>
<path d="M125.784 289.385C125.592 291.904 124.364 292.616 124.364 292.616C122.657 291.904 121.103 291.443 119.721 291.135C119.587 291.096 119.453 291.077 119.318 291.039C119.222 291.019 119.126 291 119.03 290.981C117.649 290.712 116.44 290.616 115.443 290.596C115.212 290.596 115.001 290.596 114.79 290.596C114.579 290.596 114.368 290.616 114.176 290.635C112.756 290.731 111.989 291 111.989 291C112.564 290.308 113.178 289.75 113.792 289.269C114.004 289.116 114.195 288.981 114.406 288.846C114.598 288.731 114.809 288.596 115.001 288.5C116.095 287.923 117.208 287.635 118.301 287.539C118.455 287.519 118.608 287.519 118.762 287.5C118.915 287.5 119.069 287.481 119.222 287.481C122.849 287.519 125.784 289.385 125.784 289.385Z" fill="#212021"/>
<path d="M114.445 288.866C114.656 289.423 114.771 290.058 114.829 290.616C114.617 290.616 114.406 290.635 114.215 290.654C114.138 290.154 113.984 289.693 113.831 289.289C114.042 289.135 114.234 288.981 114.445 288.866Z" fill="#353535"/>
<path d="M118.34 287.558C118.954 288.673 119.069 290.02 119.069 290.981C117.687 290.712 116.479 290.616 115.481 290.596C115.423 289.808 115.232 289.096 115.04 288.52C116.133 287.943 117.265 287.654 118.34 287.558Z" fill="#353535"/>
<path d="M119.74 291.116C119.606 291.077 119.472 291.058 119.337 291.02C119.395 289.52 119.107 288.327 118.8 287.5C118.954 287.5 119.107 287.481 119.261 287.481C119.76 288.866 119.798 290.212 119.74 291.116Z" fill="#353535"/>
<path d="M137.143 288.769C137.335 291.288 138.563 292 138.563 292C140.27 291.288 141.824 290.827 143.206 290.519C143.34 290.481 143.474 290.461 143.609 290.423C143.705 290.404 143.801 290.384 143.897 290.365C145.278 290.096 146.487 290 147.485 289.981C147.715 289.981 147.926 289.981 148.137 289.981C148.348 289.981 148.559 290 148.751 290.019C150.171 290.115 150.938 290.384 150.938 290.384C150.363 289.692 149.749 289.134 149.135 288.654C148.924 288.5 148.732 288.365 148.521 288.231C148.329 288.115 148.118 287.981 147.926 287.884C146.832 287.308 145.719 287.019 144.626 286.923C144.472 286.904 144.319 286.904 144.165 286.884C144.012 286.884 143.858 286.865 143.705 286.865C140.098 286.904 137.143 288.769 137.143 288.769Z" fill="#212021"/>
<path d="M148.501 288.25C148.29 288.808 148.175 289.442 148.118 290C148.329 290 148.54 290.019 148.732 290.039C148.808 289.539 148.962 289.077 149.115 288.673C148.904 288.519 148.693 288.385 148.501 288.25Z" fill="#353535"/>
<path d="M144.607 286.942C143.993 288.058 143.877 289.404 143.877 290.365C145.259 290.096 146.468 290 147.465 289.981C147.523 289.192 147.715 288.481 147.907 287.904C146.794 287.327 145.681 287.038 144.607 286.942Z" fill="#353535"/>
<path d="M143.206 290.519C143.34 290.48 143.474 290.461 143.609 290.423C143.551 288.923 143.839 287.73 144.146 286.904C143.993 286.904 143.839 286.884 143.686 286.884C143.187 288.25 143.148 289.596 143.206 290.519Z" fill="#353535"/>
<path d="M118.6 303.779C119.689 303.698 120.439 301.846 120.276 299.643C120.113 297.44 119.098 295.719 118.01 295.8C116.921 295.881 116.171 297.733 116.334 299.936C116.497 302.139 117.512 303.86 118.6 303.779Z" fill="#212021"/>
<path d="M145.379 299.901C145.51 297.696 144.733 295.856 143.643 295.791C142.554 295.726 141.564 297.461 141.433 299.666C141.302 301.871 142.079 303.711 143.169 303.776C144.258 303.841 145.248 302.107 145.379 299.901Z" fill="#212021"/>
<path d="M104.376 285C104.376 285 108.658 270.103 117.117 273.314C125.575 276.525 132.99 280.999 143.59 277.841C154.189 274.735 157.844 273.577 157.844 278.052C157.844 282.526 168.653 259.049 141.866 257.312C115.08 255.522 102.027 254.101 99.5203 263.418C97.014 272.735 104.376 285 104.376 285Z" fill="#212021"/>
<path d="M189 427.336C174.023 439.339 152.554 445.853 152.554 445.853C152.554 445.853 135.251 446.184 115.654 445.853C96.6006 445.551 78 423.114 78 423.114C78 423.114 93.883 422.903 98.2312 419.375C101.251 416.902 98.2312 407.433 101.794 403C100.526 403.573 120.184 409.996 134.406 408.971C144.672 408.247 168.739 403.181 169.041 403C172.483 406.86 174.083 414.46 176.952 417.023C178.22 418.169 189 427.336 189 427.336Z" fill="#0E274F"/>
<path d="M190.1 422.257C185.081 426.621 176.695 436.645 162.628 440.438C158.691 441.492 154.814 442.485 151.237 443.358C148.021 444.352 141.469 446.459 134.465 448.897C124.577 452.359 120.249 450.703 115.349 449.83C110.45 448.957 104.92 452.389 97.6462 449.74C90.3725 447.091 92.206 432.762 92.206 432.762C94.6706 431.137 104.229 430.685 110.691 435.351C117.153 440.017 125.839 439.144 125.839 439.144C126.17 439.174 126.951 438.783 128.033 438.09C128.033 438.09 134.315 434.388 145.947 425.146C149.674 422.166 153.972 418.614 158.751 414.43C167.918 406.423 175.793 395.917 184.93 393.991C200.47 390.679 206 396.73 206 396.73C206 396.73 203.325 410.818 190.1 422.257Z" fill="#F2A672"/>
<path d="M125 434.52C125 434.52 168.551 375.905 200.208 391.703C231.865 407.5 179.904 438.912 141.76 448C141.79 448 126.081 448 125 434.52Z" fill="#183368"/>
<path d="M172 436.017C172 436.017 171.676 448.67 167.198 450.198C161.04 452.276 156.209 448.945 151.112 449.923C146.015 450.901 141.92 452.276 131.667 448.547C124.862 446.072 118.498 443.963 114.992 442.832C113.284 442.343 111.486 441.854 109.66 441.304C96.0487 437.331 79.6682 423.669 74.7187 418.871C62.7574 407.257 68.2666 394.94 68.2666 394.94C68.2666 394.94 72.1555 389.775 86.2675 393.137C94.5461 395.093 103.09 403.62 111.339 411.689C114.757 415.05 118.027 418.137 121.002 420.918C131.373 430.668 138.502 436.689 138.502 436.689L138.473 436.75C139.563 437.453 140.359 437.85 140.683 437.82C140.683 437.82 146.103 440.051 155.502 436.781C161.983 434.488 169.466 434.274 172 436.017Z" fill="#FFB27D"/>
<path d="M143 434.749C143 434.749 99.449 377.127 67.7919 392.657C36.1349 408.186 88.0957 439.066 126.24 448C126.24 448 141.919 448 143 434.749Z" fill="#183368"/>
<path d="M76.666 389.827C76.666 389.827 75.7642 382.788 74.824 381.981C73.8839 381.173 69.1064 377.904 69.1064 377.904L61.4892 378.808C61.4892 378.808 61.1438 379.5 61.8729 380.058C61.8729 380.058 58.9757 382.827 58.2658 383.461C57.5559 384.096 59.6856 387.308 59.6856 387.308C59.6856 387.308 53.7569 388.269 52.8935 389.462C52.0301 390.654 52.3947 390.615 52.3947 390.615L55.1192 390.808C54.793 390.827 53.5075 390.942 53.3156 391.577C53.3156 391.577 61.0479 394.327 62.5253 394.75C64.0027 395.173 70.3151 392.788 74.517 393.365C78.6806 393.942 76.666 389.827 76.666 389.827ZM65.4609 387.327L62.2183 386.115L61.3933 384.558C63.523 382.481 62.9474 381.269 62.8515 381.115C64.444 382.596 67.4755 382.923 67.4755 382.923C67.0342 384.346 67.936 386.731 67.936 386.731L65.4609 387.327Z" fill="#FFC098"/>
<path opacity="0.05" d="M76.666 389.827C76.666 389.827 76.4165 387.904 76.052 385.961C73.2699 386.865 69.5668 385.481 69.893 383C70.0657 381.673 70.8524 380.519 71.6774 379.673C70.507 378.865 69.4133 378.096 69.1447 377.923C69.2598 379.25 68.8761 381.384 65.6143 380.846C63.83 380.557 62.4485 379.711 61.4508 378.846C61.3933 379 61.2398 379.596 61.8537 380.057C61.8537 380.057 61.777 380.134 61.6427 380.269C61.9113 380.654 62.1607 381.231 62.0456 381.923C61.8537 383.173 60.7217 384.288 58.0931 383.807C58.0164 384.731 59.3403 386.827 59.6089 387.25L63.0433 387.423C63.0433 387.423 61.9497 388.596 58.4769 388.923C55.1767 389.231 53.258 389.788 52.6249 390.634L54.8505 390.788C55.3494 390.731 55.8866 390.673 56.4814 390.692C58.9565 390.769 61.3933 390.942 61.3933 390.942C61.3933 390.942 65.1539 387.096 67.3987 387C69.6436 386.904 70.9099 387.692 71.1018 388.769C71.2936 389.846 64.6934 391.961 63.0241 392.596C61.7578 393.077 57.1722 392.423 54.6779 392.077C56.9803 392.904 61.3933 394.442 62.4677 394.75C63.9451 395.173 70.2576 392.788 74.4595 393.365C78.6806 393.942 76.666 389.827 76.666 389.827ZM65.4609 387.327L62.2183 386.115L61.3933 384.557C63.523 382.481 62.9474 381.269 62.8514 381.115C64.444 382.596 67.4755 382.923 67.4755 382.923C67.0342 384.346 67.936 386.731 67.936 386.731L65.4609 387.327Z" fill="black"/>
<path d="M54.3134 390.942C55.4646 390.519 56.6925 390.307 57.9205 390.23C59.1484 390.154 60.4148 390.25 61.6427 390.5L61.0287 390.711C61.6427 389.942 62.2759 389.269 63.0242 388.654C63.7533 388.038 64.5591 387.5 65.4609 387.096C66.3627 386.711 67.3604 386.461 68.3581 386.615C68.857 386.673 69.3174 386.846 69.7587 387.077C70.1809 387.327 70.5262 387.654 70.8332 388C70.4303 387.769 70.0274 387.577 69.6052 387.461C69.1831 387.346 68.761 387.307 68.3389 387.327C67.4947 387.365 66.6889 387.673 65.9598 388.077C65.2115 388.5 64.5207 389.019 63.8492 389.596C63.1969 390.173 62.5445 390.807 62.0073 391.461L61.7578 391.769L61.3933 391.673C60.8369 391.538 60.2805 391.384 59.6857 391.307C59.1101 391.211 58.5345 391.134 57.9397 391.096C56.7309 390.961 55.5413 390.923 54.3134 390.942Z" fill="#DD9973"/>
<path d="M59.6665 387.308C60.1462 386.981 60.6642 386.827 61.1823 386.711C61.7003 386.596 62.2375 386.577 62.7556 386.596C63.2736 386.615 63.8109 386.711 64.3097 386.884C64.8086 387.058 65.3074 387.308 65.7295 387.673C65.1731 387.808 64.6743 387.827 64.1562 387.846C63.6574 387.865 63.1777 387.846 62.6788 387.827C62.18 387.808 61.7003 387.75 61.2014 387.673C60.7026 387.615 60.1845 387.519 59.6665 387.308Z" fill="#DD9973"/>
<path d="M107.211 335.115L94.9702 365.557C94.9702 365.557 89.5787 370.961 85.1658 377.019C80.7528 383.076 75.3613 386.846 75.3613 386.846C75.3613 386.846 73.0781 393.019 74.4595 393.365C75.841 393.711 91.5358 395.192 104.429 376.211L110.684 359.557L107.211 335.115Z" fill="#FFC098"/>
<path opacity="0.05" d="M110.703 359.557L104.448 376.192C91.555 395.173 75.8793 393.711 74.4787 393.346C73.0972 393 75.3805 386.827 75.3805 386.827C75.3805 386.827 76.4741 386.057 78.105 384.654C81.3859 393.25 100.63 373.788 103.796 365.231C106.175 358.807 105.35 347.173 104.717 341.307L107.211 335.096L110.703 359.557Z" fill="black"/>
<path d="M122.5 329.5C122.5 329.5 108.674 329.125 105 336.5C101.309 343.875 96.5 361.5 92.5 367C90.5 371.5 75.4792 386.243 75.4792 386.243C75.4792 386.243 73.5625 391.599 77.3959 393.907C78.2123 394.393 95.8235 390.5 102 380C108.176 369.5 108.5 367 108.5 367L122.5 329.5Z" fill="#2B478B"/>
<path d="M193.032 393.366C197.234 392.789 203.546 395.173 205.023 394.75C206.501 394.327 214.233 391.577 214.233 391.577C214.022 390.943 212.756 390.827 212.43 390.808L215.154 390.616C215.154 390.616 215.519 390.654 214.655 389.462C213.811 388.27 207.863 387.308 207.863 387.308C207.863 387.308 209.993 384.097 209.283 383.462C208.573 382.847 205.676 380.058 205.676 380.058C206.386 379.5 206.06 378.808 206.06 378.808L198.442 377.904C198.442 377.904 193.646 381.173 192.725 381.981C191.785 382.789 190.883 389.827 190.883 389.827C190.883 389.827 188.849 393.943 193.032 393.366ZM199.574 386.712C199.574 386.712 200.495 384.327 200.035 382.904C200.035 382.904 203.066 382.577 204.659 381.097C204.563 381.25 203.987 382.462 206.117 384.539L205.292 386.097L202.05 387.308L199.574 386.712Z" fill="#FFC098"/>
<path opacity="0.05" d="M193.034 393.365C197.236 392.788 203.548 395.172 205.026 394.749C206.1 394.442 210.513 392.884 212.816 392.076C210.302 392.422 205.736 393.076 204.469 392.596C202.8 391.961 196.2 389.846 196.392 388.769C196.584 387.692 197.869 386.884 200.095 386.999C202.34 387.096 206.1 390.942 206.1 390.942C206.1 390.942 208.537 390.769 211.012 390.692C211.588 390.672 212.144 390.73 212.643 390.788L214.869 390.634C214.255 389.788 212.317 389.23 209.017 388.922C205.563 388.596 204.45 387.422 204.45 387.422L207.885 387.249C208.153 386.826 209.477 384.73 209.4 383.807C206.791 384.307 205.64 383.192 205.448 381.922C205.333 381.23 205.601 380.653 205.851 380.269C205.717 380.134 205.64 380.057 205.64 380.057C206.235 379.576 206.1 378.999 206.043 378.846C205.026 379.73 203.644 380.557 201.879 380.846C198.617 381.384 198.234 379.249 198.349 377.922C198.099 378.096 197.006 378.846 195.816 379.672C196.641 380.538 197.428 381.692 197.601 382.999C197.927 385.461 194.224 386.865 191.442 385.961C191.077 387.903 190.828 389.826 190.828 389.826C190.828 389.826 188.851 393.942 193.034 393.365ZM199.577 386.711C199.577 386.711 200.498 384.326 200.037 382.903C200.037 382.903 203.069 382.576 204.661 381.096C204.565 381.249 203.99 382.461 206.119 384.538L205.294 386.096L202.052 387.307L199.577 386.711Z" fill="black"/>
<path d="M213.219 390.943C211.991 390.924 210.801 390.962 209.631 391.077C209.036 391.116 208.46 391.212 207.885 391.289C207.309 391.366 206.753 391.52 206.177 391.654L205.813 391.75L205.563 391.443C205.026 390.789 204.354 390.154 203.721 389.577C203.05 389 202.359 388.481 201.611 388.058C200.862 387.654 200.057 387.347 199.231 387.308C198.809 387.289 198.387 387.327 197.965 387.443C197.543 387.558 197.14 387.75 196.737 387.981C197.044 387.635 197.39 387.308 197.812 387.058C198.234 386.827 198.713 386.654 199.212 386.597C200.21 386.443 201.208 386.693 202.109 387.077C202.992 387.481 203.817 388.02 204.546 388.635C205.294 389.25 205.928 389.924 206.542 390.693L205.928 390.481C207.156 390.231 208.422 390.135 209.65 390.212C210.839 390.308 212.067 390.52 213.219 390.943Z" fill="#DD9973"/>
<path d="M207.866 387.307C207.328 387.5 206.829 387.596 206.331 387.692C205.832 387.769 205.352 387.827 204.853 387.846C204.354 387.865 203.875 387.884 203.376 387.865C202.877 387.827 202.378 387.807 201.802 387.692C202.225 387.307 202.723 387.077 203.222 386.904C203.721 386.731 204.258 386.634 204.776 386.615C205.294 386.577 205.832 386.615 206.35 386.731C206.868 386.827 207.386 387 207.866 387.307Z" fill="#DD9973"/>
<path d="M160.301 335.115L172.542 365.557C172.542 365.557 177.934 370.961 182.347 377.019C186.76 383.076 192.151 386.846 192.151 386.846C192.151 386.846 194.435 393.019 193.053 393.365C191.672 393.711 175.977 395.192 163.083 376.211L156.828 359.557L160.301 335.115Z" fill="#FFC098"/>
<path opacity="0.05" d="M156.828 359.558L163.083 376.193C175.977 395.173 191.653 393.712 193.053 393.346C194.435 393 192.151 386.827 192.151 386.827C192.151 386.827 191.058 386.058 189.427 384.654C186.146 393.25 166.902 373.789 163.736 365.231C161.357 358.808 162.182 347.173 162.815 341.308L160.32 335.096L156.828 359.558Z" fill="black"/>
<path d="M145 329.5C145 329.5 158.826 329.125 162.5 336.5C166.191 343.875 171 361.5 175 367C177 371.5 192.021 386.243 192.021 386.243C192.021 386.243 193.938 391.599 190.104 393.907C189.288 394.393 171.676 390.5 165.5 380C159.324 369.5 159 367 159 367L145 329.5Z" fill="#2B478B"/>
<path d="M156 408C156 408 119.665 413.181 106 405C100.529 401.719 101.36 381.048 101.02 370.384C100.971 369.199 101.02 367.786 101.093 366.236C101.725 353.795 110.392 344.094 113.431 342.909C113.431 342.909 114.442 329.755 122.32 328C122.32 328.137 122.563 335.337 131.584 335.087C138.295 335.201 141.042 331.714 141.504 328.046C146.27 328.57 143.193 329.849 148.737 331.261C148.737 331.261 148.746 334.2 154.704 375.057C158.497 401.057 160.62 408.068 156 408Z" fill="white"/>
<path d="M121 329L119.654 418C119.654 418 100.669 413.823 101.036 412.114C101.403 410.405 97.9286 373.524 101.99 356.531C106.027 339.514 121 329 121 329Z" fill="#2B478B"/>
<path d="M144.301 329L143 418C143 418 161.353 413.827 160.999 412.12C160.644 410.413 164.002 373.571 160.076 356.596C156.15 339.621 144.301 329 144.301 329Z" fill="#2B478B"/>
<path d="M121 329C121 329 116.128 329.287 112.718 330.555C112.718 330.555 110.333 349.29 110 355.272C110 355.272 112.487 358.024 114.692 358.12L112.615 361.23L120.103 387L121 329Z" fill="#183368"/>
<path d="M143.838 329C143.838 329 147.442 328.952 150.817 330.242C150.817 330.242 152.67 349.368 153 355.338C153 355.338 150.538 358.084 148.355 358.179L150.411 361.283L143 387L143.838 329Z" fill="#183368"/>
<path d="M141.289 327.29C141.289 327.29 143.572 328.353 144 331.012C144 331.012 137.435 338.213 132.821 338.334L141.289 327.29Z" fill="#ED7D2B"/>
<path d="M132.821 338.334L123.854 327C123.854 327 120.976 328.837 121 330.915C121 330.915 128.897 338.624 132.821 338.334Z" fill="#ED7D2B"/>
<path d="M134.462 337.561C134.462 337.561 141.431 398.628 139.005 406.071C136.579 413.514 132.56 419 132.56 419C132.56 419 126.209 409.019 126.209 405.153C126.209 401.262 131.489 337.512 131.489 337.512L134.462 337.561Z" fill="#FE9315"/>
<path d="M136.294 334.564C136.294 334.564 132.084 334.129 129.515 334.395C129.016 334.443 128.73 335.023 128.968 335.458C129.682 336.763 131.156 339.059 132.678 339.059C134.843 339.059 138.196 334.709 136.294 334.564Z" fill="#ED7D2B"/>
</svg>
