<svg width="267" height="452" viewBox="0 0 267 452" fill="none" xmlns="http://www.w3.org/2000/svg">
<g clip-path="url(#clip0_1_448)">
<path d="M232.993 72.1492C224.359 75.0537 217.359 80.5143 210.475 86.3234C211.292 68.6637 216.542 51.5848 225.759 36.2487C226.692 34.6222 224.242 33.228 223.309 34.8546C213.392 51.2363 208.025 69.8255 207.558 88.8795C199.975 95.3857 192.508 102.008 183.291 105.494C186.558 98.6388 188.541 91.2031 188.424 82.838C188.308 79.1201 182.591 79.1201 182.591 82.838C182.824 97.7093 175.59 109.792 166.723 121.178C164.157 108.747 157.856 97.3608 153.19 85.5102C159.49 82.1409 164.507 75.7508 168.59 70.1741C173.84 62.8546 177.807 54.7218 180.257 46.1243C181.307 42.5226 175.707 41.0122 174.657 44.6139C172.557 51.8172 169.524 58.5558 165.323 64.8297C161.94 69.8255 156.923 76.9126 151.206 80.1658C148.989 73.4272 147.589 66.5724 148.056 59.3691C148.289 55.6512 142.456 55.6512 142.222 59.3691C140.939 83.8836 159.023 103.054 161.707 126.639C161.707 126.871 161.823 126.987 161.823 127.22C157.623 132.216 153.423 137.211 149.456 142.323C140.939 129.311 134.405 115.137 130.089 100.149C129.622 98.4064 126.822 99.1035 127.288 100.962C131.839 116.531 138.722 131.286 147.589 144.763C144.556 148.946 141.872 153.128 139.772 157.66C134.289 169.162 131.255 181.477 129.855 194.025C129.855 193.909 129.855 193.676 129.855 193.56C128.455 182.871 126.355 172.182 122.388 162.191C123.788 146.738 121.338 131.402 115.388 117.112C114.688 115.485 111.888 116.182 112.588 117.925C117.721 130.24 120.172 143.253 119.822 156.382C115.038 146.855 107.921 139.187 100.337 131.751V131.635C96.2539 121.062 97.4206 110.025 98.8207 99.1035C113.638 80.979 121.338 58.0911 120.172 34.7384C120.055 32.8794 117.138 32.8794 117.255 34.7384C118.305 55.7674 112.005 76.5641 99.404 93.5268C100.571 83.6512 101.154 73.8919 97.5373 64.2487C96.2539 60.7633 90.6537 62.2736 91.9371 65.7591C99.054 84.6969 89.6037 104.68 92.2871 123.967C86.6869 118.274 81.5533 112.116 78.6366 104.796C75.1364 95.5019 74.9031 84.9292 72.9197 75.2861C71.2863 66.8048 69.4195 58.0911 63.0026 51.9334C60.3192 49.3774 56.2357 53.4438 58.9191 55.9998C64.0526 60.9956 65.9194 68.4313 67.2028 75.6346C50.4021 73.1948 36.2849 62.9707 23.6844 52.0496C22.2843 50.8877 20.1842 52.8629 21.5843 54.1409C35.0015 65.7591 49.8187 76.3317 67.6695 78.6554C67.9028 79.9334 68.1361 81.3276 68.2528 82.4894C69.1862 87.8338 69.7695 93.1782 70.8196 98.5226C70.7029 98.8712 70.7029 99.3359 70.8196 99.8006C71.2863 102.008 71.9863 104.216 72.6863 106.307C66.0361 104.68 59.1524 104.332 52.2688 103.17C43.0518 101.543 35.5848 97.1284 27.8845 92.1326C24.7344 90.1575 21.8176 95.0371 24.9677 97.1284C32.5514 102.008 40.135 106.655 49.1187 108.398C49.9354 108.514 50.7521 108.747 51.5688 108.863C43.6352 112.929 35.3515 115.95 26.7178 118.041C24.9677 118.506 25.6678 121.294 27.5345 120.83C37.6849 118.39 47.3686 114.556 56.469 109.56C63.1193 110.373 69.8862 110.954 76.3031 113.394C85.9869 129.66 104.421 140.232 113.638 157.079C116.905 163.12 119.122 169.626 120.872 176.249C114.338 170.556 106.638 166.257 98.354 163.236C86.2202 158.589 72.453 157.776 61.6025 150.224C58.5691 148.133 55.6523 153.128 58.6858 155.22C66.5027 160.68 75.7198 162.655 84.7035 164.979C68.1361 168.581 51.1021 169.162 34.1848 166.722C32.318 166.489 31.618 169.278 33.3681 169.51C52.5022 172.299 71.753 171.369 90.3037 166.606C91.0037 166.838 91.5871 167.07 92.2871 167.187C103.954 171.021 114.805 177.062 122.622 186.589C122.738 186.705 122.738 186.705 122.855 186.821C123.205 188.913 123.555 191.004 123.788 193.095C125.772 207.386 126.822 221.909 127.288 236.315C127.288 237.826 128.222 238.639 129.389 238.987C129.389 239.104 129.389 239.22 129.389 239.22C129.622 242.938 135.455 242.938 135.222 239.22C134.522 228.066 134.055 216.68 134.639 205.294C142.222 190.655 156.34 180.896 169.99 172.066C171.507 171.021 170.107 168.581 168.59 169.626C156.106 177.875 143.389 186.705 135.105 199.021C136.156 187.402 138.372 175.9 142.806 165.095C152.723 157.776 163.573 153.361 175.474 149.992C178.157 149.294 180.841 148.481 183.407 147.552C193.558 149.411 203.825 151.502 213.975 153.593C215.842 153.942 216.542 151.153 214.792 150.805C206.158 149.062 197.408 147.319 188.774 145.693C194.608 143.369 200.091 140.348 204.758 135.817C207.442 133.261 203.358 129.195 200.675 131.751C192.041 140.116 180.141 142.556 168.823 145.925C161.357 148.133 154.356 151.153 147.706 154.987V154.871C156.223 140 169.99 127.452 179.091 112.697C201.491 107.701 213.042 84.8131 234.276 77.7259C238.01 76.5641 236.493 70.9873 232.993 72.1492Z" fill="#844232"/>
<path d="M89.1369 124.199C82.0199 117.693 76.7697 109.444 73.7363 100.15C70.2361 89.1123 71.4028 77.3778 68.4861 66.2243C68.2527 65.5272 69.4194 65.1787 69.6528 65.8757C72.4529 76.4484 71.4028 87.4857 74.4363 98.0583C77.1197 107.818 82.6033 116.531 90.0702 123.27C90.5369 123.967 89.7202 124.78 89.1369 124.199ZM117.371 155.569C112.821 148.133 107.571 141.278 101.621 135.004C101.154 134.423 100.337 135.237 100.804 135.818C106.754 142.092 111.888 148.83 116.438 156.15C116.788 156.731 117.838 156.15 117.371 155.569ZM122.855 165.444C122.622 164.747 121.572 164.979 121.688 165.793C126.588 184.15 129.389 202.971 129.972 222.025C129.972 222.722 131.139 222.722 131.139 222.025C130.672 202.739 127.872 183.801 122.855 165.444ZM97.5372 69.826C97.4205 69.1289 96.2538 69.3612 96.3705 70.1745C99.2873 86.5562 92.987 102.938 95.0871 119.32C95.2038 120.017 96.3705 120.017 96.2538 119.32C94.1537 102.822 100.454 86.4401 97.5372 69.826ZM70.0028 106.888C55.6522 107.701 41.4183 103.403 29.8678 94.9214C29.2845 94.4567 28.7011 95.5023 29.2845 95.967C40.9516 104.565 55.4189 108.863 70.0028 108.05C70.7028 108.05 70.7028 106.888 70.0028 106.888ZM120.055 178.108C103.954 164.166 82.1366 159.635 62.1858 154.175C61.4858 153.942 61.1358 155.104 61.8358 155.336C81.5532 160.797 103.254 165.212 119.121 179.038C119.821 179.386 120.638 178.573 120.055 178.108ZM184.924 86.7886C183.991 103.403 174.074 117.228 162.99 128.963C162.523 129.544 163.34 130.357 163.807 129.776C175.124 117.809 185.157 103.751 186.091 86.7886C186.207 85.9753 185.041 85.9753 184.924 86.7886ZM156.34 137.328C142.222 151.154 136.739 170.556 132.655 189.262C132.539 189.959 133.589 190.307 133.822 189.61C137.906 171.137 143.272 151.851 157.156 138.257C157.623 137.677 156.806 136.863 156.34 137.328ZM198.925 135.121C184.924 146.042 165.207 144.183 150.739 154.523C150.156 154.988 150.739 155.917 151.323 155.569C165.907 145.228 185.624 147.087 199.741 136.05C200.325 135.469 199.508 134.656 198.925 135.121ZM231.943 74.0085C213.159 79.5853 203.008 99.4525 184.107 104.681C183.407 104.913 183.641 105.959 184.457 105.843C203.475 100.614 213.625 80.7471 232.293 75.1703C232.993 74.938 232.643 73.7762 231.943 74.0085ZM177.107 46.2409C173.14 59.8343 165.09 71.6849 154.006 80.5148C153.423 80.9795 154.239 81.7928 154.823 81.328C166.023 72.382 174.19 60.299 178.157 46.5894C178.39 45.7762 177.34 45.4276 177.107 46.2409ZM162.757 116.764C160.54 107.585 157.04 99.104 152.956 90.6226C148.639 81.4442 146.073 71.8011 145.722 61.577C145.722 60.8799 144.556 60.8799 144.556 61.577C144.789 70.8716 146.773 79.8177 150.623 88.299C154.823 97.826 159.14 107.004 161.59 117.112C161.823 117.809 162.99 117.461 162.757 116.764Z" fill="#A04C3C"/>
<path d="M185.741 54.0247C194.891 54.0247 202.309 46.6383 202.309 37.5267C202.309 28.4152 194.891 21.0288 185.741 21.0288C176.591 21.0288 169.174 28.4152 169.174 37.5267C169.174 46.6383 176.591 54.0247 185.741 54.0247Z" fill="#F7E714"/>
<path d="M185.741 52.7468C194.182 52.7468 201.025 45.9326 201.025 37.5269C201.025 29.1212 194.182 22.307 185.741 22.307C177.3 22.307 170.457 29.1212 170.457 37.5269C170.457 45.9326 177.3 52.7468 185.741 52.7468Z" fill="#E5AE15"/>
<path d="M185.741 51.1201C178.507 51.1201 172.557 45.1948 172.557 37.9915C172.557 30.7882 178.507 24.8629 185.741 24.8629C192.974 24.8629 198.925 30.7882 198.925 37.9915C198.925 45.1948 192.974 51.1201 185.741 51.1201ZM185.741 25.3276C178.74 25.3276 173.14 31.0205 173.14 37.8753C173.14 44.7301 178.857 50.423 185.741 50.423C192.624 50.423 198.341 44.8462 198.341 37.8753C198.341 30.9043 192.741 25.3276 185.741 25.3276Z" fill="#D8A61A"/>
<path d="M185.741 50.6554C178.507 50.6554 172.557 44.73 172.557 37.5267C172.557 30.3234 178.507 24.3981 185.741 24.3981C192.974 24.3981 198.925 30.3234 198.925 37.5267C198.925 44.73 192.974 50.6554 185.741 50.6554ZM185.741 24.8628C178.74 24.8628 173.14 30.5558 173.14 37.4106C173.14 44.2653 178.857 49.9583 185.741 49.9583C192.624 49.9583 198.341 44.4977 198.341 37.5267C198.341 30.5558 192.741 24.8628 185.741 24.8628Z" fill="#F7E714"/>
<path d="M185.741 23.1203C194.024 23.1203 200.791 29.7427 201.025 37.9916C201.025 37.8754 201.025 37.7593 201.025 37.5269C201.025 29.0456 194.141 22.307 185.741 22.307C177.34 22.307 170.34 29.0456 170.34 37.5269C170.34 37.6431 170.34 37.7593 170.34 37.9916C170.573 29.7427 177.34 23.1203 185.741 23.1203Z" fill="#B78813"/>
<path d="M187.294 32.6383C188.522 32.6383 189.68 33.1615 190.556 34.1117L191.822 32.9575C190.617 31.6506 189.008 30.9309 187.294 30.9309C185.578 30.9309 183.971 31.6506 182.767 32.9584C182.167 33.6102 181.7 34.3711 181.391 35.1992H179.168V36.9065H180.983C180.95 37.1883 180.928 37.4725 180.928 37.7602C180.928 38.0479 180.95 38.3322 180.983 38.6139H179.168V40.3212H181.391C181.702 41.1492 182.164 41.9098 182.767 42.5629C183.971 43.8698 185.578 44.5895 187.294 44.5895C189.008 44.5895 190.617 43.8698 191.821 42.5629L190.555 41.4087C189.68 42.3589 188.522 42.8822 187.294 42.8822C186.066 42.8822 184.909 42.3597 184.033 41.4087C183.739 41.0798 183.489 40.7142 183.29 40.3212H186.895V38.6139H182.722C182.679 38.3339 182.645 38.0505 182.645 37.7602C182.645 37.47 182.679 37.1865 182.722 36.9065H186.895V35.1992H183.29C183.496 34.8091 183.733 34.4369 184.033 34.1117C184.909 33.1615 186.066 32.6383 187.294 32.6383Z" fill="#B78813"/>
<path d="M187.695 32.2376C188.922 32.2376 190.081 32.7609 190.956 33.711L192.223 32.5569C191.017 31.2499 189.409 30.5303 187.695 30.5303C185.979 30.5303 184.372 31.2499 183.168 32.5577C182.568 33.2096 182.101 33.9705 181.792 34.7986H179.569V36.5059H181.384C181.351 36.7876 181.329 37.0719 181.329 37.3595C181.329 37.6472 181.351 37.9315 181.384 38.2132H179.569V39.9205H181.792C182.102 40.7486 182.565 41.5092 183.168 42.1622C184.372 43.4692 185.979 44.1888 187.695 44.1888C189.409 44.1888 191.017 43.4692 192.222 42.1622L190.956 41.0081C190.081 41.9582 188.922 42.4815 187.695 42.4815C186.467 42.4815 185.309 41.9591 184.434 41.0081C184.139 40.6792 183.89 40.3136 183.691 39.9205H187.296V38.2132H183.122C183.079 37.9332 183.046 37.6498 183.046 37.3595C183.046 37.0693 183.079 36.7859 183.122 36.5059H187.296V34.7986H183.691C183.897 34.4084 184.134 34.0362 184.434 33.711C185.309 32.7609 186.467 32.2376 187.695 32.2376Z" fill="#F7E714"/>
<path opacity="0.3" d="M193.091 48.9131C183.874 48.9131 176.524 41.4774 176.524 32.4152C176.524 28.465 177.924 24.7472 180.257 21.9588C173.724 24.1662 169.057 30.3239 169.057 37.6434C169.057 46.8218 176.524 54.1413 185.624 54.1413C190.758 54.1413 195.424 51.8177 198.458 48.0999C196.825 48.5646 195.074 48.9131 193.091 48.9131Z" fill="#B78813"/>
<path d="M185.857 87.2529C192.494 87.2529 197.875 81.8952 197.875 75.2861C197.875 68.677 192.494 63.3193 185.857 63.3193C179.221 63.3193 173.84 68.677 173.84 75.2861C173.84 81.8952 179.221 87.2529 185.857 87.2529Z" fill="#F7E714"/>
<path d="M185.857 86.3239C191.979 86.3239 196.941 81.3823 196.941 75.2866C196.941 69.1908 191.979 64.2492 185.857 64.2492C179.736 64.2492 174.774 69.1908 174.774 75.2866C174.774 81.3823 179.736 86.3239 185.857 86.3239Z" fill="#E5AE15"/>
<path d="M185.857 85.1617C180.607 85.1617 176.29 80.8629 176.29 75.6347C176.29 70.4065 180.607 66.1077 185.857 66.1077C191.108 66.1077 195.424 70.4065 195.424 75.6347C195.424 80.8629 191.108 85.1617 185.857 85.1617ZM185.857 66.4563C180.841 66.4563 176.64 70.5227 176.64 75.6347C176.64 80.7467 180.724 84.8131 185.857 84.8131C190.874 84.8131 195.074 80.7467 195.074 75.6347C195.074 70.5227 190.874 66.4563 185.857 66.4563Z" fill="#D8A61A"/>
<path d="M185.857 84.8132C180.607 84.8132 176.29 80.5145 176.29 75.2863C176.29 70.0581 180.607 65.7593 185.857 65.7593C191.108 65.7593 195.424 70.0581 195.424 75.2863C195.424 80.5145 191.108 84.8132 185.857 84.8132ZM185.857 66.224C180.841 66.224 176.64 70.2904 176.64 75.4024C176.64 80.3983 180.724 84.5809 185.857 84.5809C190.874 84.5809 195.074 80.5145 195.074 75.4024C195.074 70.2904 190.874 66.224 185.857 66.224Z" fill="#F7E714"/>
<path d="M185.857 64.8301C191.924 64.8301 196.825 69.5936 196.941 75.6351C196.941 75.5189 196.941 75.4028 196.941 75.2866C196.941 69.1289 191.924 64.2492 185.857 64.2492C179.674 64.2492 174.774 69.2451 174.774 75.2866C174.774 75.4028 174.774 75.5189 174.774 75.6351C174.89 69.7098 179.791 64.8301 185.857 64.8301Z" fill="#B78813"/>
<path d="M183.07 76.301V78.8226H181.829V80.0835H183.691V81.3443H184.932V80.0835H186.173V81.3443H187.414V80.0513C188.636 79.8943 189.587 78.8441 189.587 77.5618C189.587 76.7297 189.183 75.9959 188.569 75.5363C189.022 75.0673 189.276 74.4365 189.276 73.7793C189.276 72.608 188.483 71.629 187.414 71.3472V69.9968H186.173V71.2577H184.932V69.9968H183.691V71.2577H181.829V72.5185H183.07V76.301ZM187.104 78.8226H184.311V76.301H187.104C187.789 76.301 188.345 76.8665 188.345 77.5618C188.345 78.2572 187.789 78.8226 187.104 78.8226ZM184.311 72.5185H186.794C187.478 72.5185 188.035 73.084 188.035 73.7793C188.035 74.4747 187.478 75.0402 186.794 75.0402H184.311V72.5185Z" fill="#B78813"/>
<path d="M183.417 75.9535V78.4752H182.176V79.736H184.038V80.9968H185.279V79.736H186.521V80.9968H187.762V79.7038C188.983 79.5469 189.934 78.4966 189.934 77.2143C189.934 76.3822 189.531 75.6484 188.916 75.1888C189.369 74.7198 189.623 74.089 189.624 73.4318C189.624 72.2605 188.83 71.2815 187.762 70.9997V69.6494H186.521V70.9102H185.279V69.6494H184.038V70.9102H182.176V72.171H183.417V75.9535ZM187.452 78.4752H184.659V75.9535H187.452C188.136 75.9535 188.693 76.519 188.693 77.2143C188.693 77.9097 188.136 78.4752 187.452 78.4752ZM184.659 72.171H187.141C187.826 72.171 188.383 72.7365 188.383 73.4318C188.383 74.1272 187.826 74.6927 187.141 74.6927H184.659V72.171Z" fill="#F7E714"/>
<path opacity="0.3" d="M191.224 83.5353C184.574 83.5353 179.207 78.1909 179.207 71.5685C179.207 68.6639 180.257 65.9917 181.891 64.0166C177.224 65.6432 173.84 70.0581 173.84 75.2863C173.84 81.9087 179.207 87.2531 185.857 87.2531C189.591 87.2531 192.974 85.5104 195.191 82.8382C193.908 83.3029 192.624 83.5353 191.224 83.5353Z" fill="#B78813"/>
<path d="M247.577 85.859C258.208 85.859 266.827 77.2763 266.827 66.6889C266.827 56.1015 258.208 47.5188 247.577 47.5188C236.945 47.5188 228.326 56.1015 228.326 66.6889C228.326 77.2763 236.945 85.859 247.577 85.859Z" fill="#F7E714"/>
<path d="M247.577 84.4647C257.435 84.4647 265.427 76.5061 265.427 66.6887C265.427 56.8713 257.435 48.9128 247.577 48.9128C237.718 48.9128 229.726 56.8713 229.726 66.6887C229.726 76.5061 237.718 84.4647 247.577 84.4647Z" fill="#E5AE15"/>
<path d="M247.577 82.4898C239.06 82.4898 232.176 75.635 232.176 67.1537C232.176 58.6724 239.06 51.8176 247.577 51.8176C256.094 51.8176 262.977 58.6724 262.977 67.1537C262.977 75.635 256.094 82.4898 247.577 82.4898ZM247.577 52.5147C239.526 52.5147 232.876 59.1371 232.876 67.1537C232.876 75.1703 239.526 81.7927 247.577 81.7927C255.627 81.7927 262.277 75.1703 262.277 67.1537C262.277 59.1371 255.744 52.5147 247.577 52.5147Z" fill="#D8A61A"/>
<path d="M247.577 81.9087C239.06 81.9087 232.176 75.0539 232.176 66.5726C232.176 58.0913 239.06 51.2365 247.577 51.2365C256.094 51.2365 262.977 58.0913 262.977 66.5726C262.977 75.0539 256.094 81.9087 247.577 81.9087ZM247.577 52.0498C239.526 52.0498 232.876 58.6722 232.876 66.6888C232.876 74.7054 239.526 81.3278 247.577 81.3278C255.627 81.3278 262.277 74.7054 262.277 66.6888C262.277 58.556 255.744 52.0498 247.577 52.0498Z" fill="#F7E714"/>
<path d="M247.577 49.8421C257.26 49.8421 265.077 57.5102 265.427 67.0371C265.427 66.921 265.427 66.6886 265.427 66.5724C265.427 56.8131 257.494 48.7965 247.577 48.7965C237.776 48.7965 229.726 56.6969 229.726 66.5724C229.726 66.6886 229.726 66.921 229.726 67.0371C230.076 57.6264 237.893 49.8421 247.577 49.8421Z" fill="#B78813"/>
<path d="M253.877 63.3195V62.7386L253.293 62.971H251.893C251.777 62.2739 251.427 61.693 251.077 61.112H253.06C253.177 61.112 253.293 60.9959 253.41 60.8797L253.993 59.9502C253.993 59.834 254.11 59.834 253.993 59.7179V59.2531H253.177V59.3693H242.093C241.976 59.3693 241.86 59.4855 241.743 59.6017L241.51 60.0664C241.276 60.0664 241.16 60.0664 241.16 60.0664V60.7635C241.16 60.9959 241.276 61.112 241.51 61.112H247.46C248.627 61.112 249.677 61.8091 250.027 62.971H242.093C241.976 62.971 241.86 63.0872 241.743 63.2033L241.393 63.6681H241.043V64.249V64.3652C241.043 64.4813 241.276 64.7137 241.393 64.7137H249.91C249.56 65.8755 248.51 66.5726 247.343 66.5726H241.276C241.043 66.5726 240.926 66.6888 240.926 66.9212V68.1992C240.926 68.3154 240.926 68.4316 241.043 68.4316L249.443 76.4482L249.56 76.5643H251.077C251.31 76.5643 251.427 76.332 251.427 76.2158V75.5187L250.843 75.4025L243.376 68.3154H247.46C249.56 68.3154 251.427 66.805 251.777 64.7137H252.827C252.943 64.7137 253.06 64.5975 253.177 64.4813L253.76 63.5519C253.877 63.4357 253.877 63.3195 253.877 63.3195Z" fill="#B78813"/>
<path d="M250.959 60.5311H252.943C253.06 60.5311 253.176 60.4149 253.293 60.2988L253.876 59.3693C253.993 59.1369 253.876 58.7884 253.526 58.7884H242.209C242.092 58.7884 241.976 58.9046 241.859 59.0207L241.276 59.9502C241.159 60.1826 241.276 60.5311 241.626 60.5311H247.576C248.743 60.5311 249.793 61.2282 250.143 62.39H242.209C242.092 62.39 241.976 62.5062 241.859 62.6224L241.276 63.5519C241.159 63.7842 241.276 64.1328 241.626 64.1328H250.143C249.793 65.2946 248.743 65.9917 247.576 65.9917H241.509C241.276 65.9917 241.159 66.1079 241.159 66.3402V67.6183C241.159 67.7344 241.159 67.8506 241.276 67.8506L249.676 75.8672L249.793 75.9834H251.309C251.659 75.9834 251.776 75.5187 251.543 75.2863L243.609 67.7344H247.693C249.793 67.7344 251.659 66.2241 252.009 64.1328H253.06C253.176 64.1328 253.293 64.0166 253.41 63.9004L253.993 62.971C254.11 62.7386 253.993 62.39 253.643 62.39H252.009C251.659 61.6929 251.309 61.112 250.959 60.5311Z" fill="#F7E714"/>
<path d="M241.16 63.7842C241.16 63.668 241.16 63.5519 241.16 63.4357L241.744 62.5062C241.86 62.39 241.977 62.2739 242.094 62.2739H249.911C249.911 62.39 250.027 62.5062 250.027 62.5062H242.094C241.977 62.5062 241.86 62.6224 241.744 62.7386L241.16 63.7842ZM241.277 60.1826L241.86 59.2531C241.977 59.1369 242.094 59.0207 242.21 59.0207H253.527C253.644 59.0207 253.877 59.1369 253.877 59.2531C253.994 59.0207 253.761 58.7884 253.527 58.7884H242.21C242.094 58.7884 241.977 58.9046 241.86 59.0207L241.277 59.9502C241.16 60.0664 241.16 60.1826 241.277 60.1826C241.277 60.2987 241.16 60.2987 241.277 60.1826ZM253.527 62.39H251.894C251.777 61.8091 251.544 61.2282 251.194 60.7635H250.961C251.427 61.3444 251.661 61.9253 251.777 62.6224H253.411C253.527 62.6224 253.761 62.7386 253.761 62.8548C253.877 62.6224 253.761 62.39 253.527 62.39ZM241.394 66.2241H247.461C248.627 66.2241 249.677 65.4108 250.027 64.3651H249.911C249.444 65.2946 248.511 65.9917 247.461 65.9917H241.394C241.16 65.9917 241.044 66.1079 241.044 66.3402V66.5726C241.044 66.4564 241.16 66.2241 241.394 66.2241ZM243.61 67.9668H243.377L251.311 75.5187L251.427 75.6348C251.427 75.5187 251.427 75.2863 251.311 75.1701L243.61 67.9668Z" fill="#FFFF00"/>
<path opacity="0.3" d="M256.21 79.9336C245.593 79.9336 236.96 71.3361 236.96 60.7635C236.96 56.1162 238.593 51.9336 241.393 48.5643C233.809 51.1204 228.443 58.3237 228.443 66.6888C228.443 77.2614 237.076 85.8589 247.693 85.8589C253.76 85.8589 259.127 83.0706 262.627 78.888C260.527 79.4689 258.427 79.9336 256.21 79.9336Z" fill="#B78813"/>
<path d="M228.32 45.4358C235.009 45.4358 240.43 40.0367 240.43 33.3765C240.43 26.7163 235.009 21.3172 228.32 21.3172C221.632 21.3172 216.21 26.7163 216.21 33.3765C216.21 40.0367 221.632 45.4358 228.32 45.4358Z" fill="#F7E714"/>
<path d="M228.32 44.4774C234.477 44.4774 239.468 39.5073 239.468 33.3764C239.468 27.2455 234.477 22.2755 228.32 22.2755C222.164 22.2755 217.173 27.2455 217.173 33.3764C217.173 39.5073 222.164 44.4774 228.32 44.4774Z" fill="#E5AE15"/>
<path d="M228.32 43.2797C223.027 43.2797 218.697 38.9671 218.697 33.6962C218.697 28.4252 223.027 24.1126 228.32 24.1126C233.614 24.1126 237.944 28.4252 237.944 33.6962C237.944 38.9671 233.614 43.2797 228.32 43.2797ZM228.32 24.512C223.268 24.512 219.098 28.6648 219.098 33.6962C219.098 38.7275 223.268 42.8804 228.32 42.8804C233.373 42.8804 237.543 38.7275 237.543 33.6962C237.543 28.6648 233.373 24.512 228.32 24.512Z" fill="#D8A61A"/>
<path d="M228.32 42.9598C223.027 42.9598 218.697 38.6472 218.697 33.3762C218.697 28.1053 223.027 23.7927 228.32 23.7927C233.614 23.7927 237.944 28.1053 237.944 33.3762C237.944 38.6472 233.614 42.9598 228.32 42.9598ZM228.32 24.192C223.268 24.192 219.098 28.3449 219.098 33.3762C219.098 38.4076 223.268 42.5605 228.32 42.5605C233.373 42.5605 237.543 38.4076 237.543 33.3762C237.543 28.265 233.373 24.192 228.32 24.192Z" fill="#F7E714"/>
<path d="M228.32 22.8346C234.415 22.8346 239.308 27.6264 239.468 33.6161C239.468 33.5363 239.468 33.3765 239.468 33.2967C239.468 27.1472 234.496 22.1957 228.32 22.1957C222.145 22.1957 217.173 27.1472 217.173 33.2967C217.173 33.3765 217.173 33.5363 217.173 33.6161C217.333 27.6264 222.225 22.8346 228.32 22.8346Z" fill="#B78813"/>
<path d="M229.321 32.9234H231.654V34.0586H228.794V35.1939H231.654V36.3291H228.794V38.5996H227.65V36.3291H224.79V35.1939H227.65V34.0586H224.79V32.9234H227.124L224.218 28.3824H225.574L228.222 32.5204L230.871 28.3824H232.226L229.321 32.9234Z" fill="#B78813"/>
<path d="M229.596 32.6481H231.93V33.7833H229.07V34.9185H231.93V36.0538H229.07V38.3243H227.926V36.0538H225.066V34.9185H227.926V33.7833H225.066V32.6481H227.4L224.494 28.1071H225.85L228.498 32.245L231.146 28.1071H232.502L229.596 32.6481Z" fill="#F7E714"/>
<path opacity="0.3" d="M233.694 41.6821C227.037 41.6821 221.584 36.2514 221.584 29.6228C221.584 26.7478 222.626 24.0324 224.31 21.956C219.659 23.6331 216.21 28.1054 216.21 33.3764C216.21 40.005 221.664 45.4357 228.32 45.4357C232.09 45.4357 235.458 43.7586 237.704 41.0432C236.42 41.4425 235.057 41.6821 233.694 41.6821Z" fill="#B78813"/>
<path d="M208.958 138.722C215.595 138.722 220.976 133.365 220.976 126.755C220.976 120.146 215.595 114.789 208.958 114.789C202.322 114.789 196.941 120.146 196.941 126.755C196.941 133.365 202.322 138.722 208.958 138.722Z" fill="#F7E714"/>
<path d="M208.958 137.793C215.08 137.793 220.042 132.851 220.042 126.755C220.042 120.659 215.08 115.718 208.958 115.718C202.837 115.718 197.875 120.659 197.875 126.755C197.875 132.851 202.837 137.793 208.958 137.793Z" fill="#E5AE15"/>
<path d="M208.958 136.631C203.708 136.631 199.391 132.332 199.391 127.104C199.391 121.876 203.708 117.577 208.958 117.577C214.209 117.577 218.525 121.876 218.525 127.104C218.525 132.332 214.325 136.631 208.958 136.631ZM208.958 117.926C203.942 117.926 199.741 121.992 199.741 127.104C199.741 132.1 203.825 136.283 208.958 136.283C213.975 136.283 218.175 132.216 218.175 127.104C218.175 121.992 214.092 117.926 208.958 117.926Z" fill="#D8A61A"/>
<path d="M208.958 136.282C203.708 136.282 199.391 131.984 199.391 126.755C199.391 121.527 203.708 117.228 208.958 117.228C214.209 117.228 218.525 121.527 218.525 126.755C218.525 131.984 214.325 136.282 208.958 136.282ZM208.958 117.693C203.942 117.693 199.741 121.759 199.741 126.872C199.741 131.867 203.825 136.05 208.958 136.05C213.975 136.05 218.175 131.984 218.175 126.872C218.175 121.759 214.092 117.693 208.958 117.693Z" fill="#F7E714"/>
<path d="M208.958 116.299C215.025 116.299 219.926 121.062 220.042 127.104C220.042 126.988 220.042 126.871 220.042 126.755C220.042 120.597 215.025 115.718 208.958 115.718C202.775 115.718 197.875 120.714 197.875 126.755C197.875 126.871 197.875 126.988 197.875 127.104C198.108 121.062 203.008 116.299 208.958 116.299Z" fill="#B78813"/>
<path d="M210.937 125.588H212.071C212.071 123.979 210.509 123.245 209.236 123.076V121.901H208.101V123.076C206.828 123.245 205.266 123.979 205.266 125.588C205.266 127.122 206.778 127.92 208.101 128.1V130.919C207.28 130.776 206.4 130.338 206.4 129.558H205.266C205.266 131.026 206.641 131.894 208.101 132.073V133.244H209.236V132.07C210.509 131.901 212.071 131.167 212.071 129.558C212.071 127.949 210.509 127.215 209.236 127.046V124.227C209.99 124.362 210.937 124.76 210.937 125.588V125.588ZM206.4 125.588C206.4 124.76 207.347 124.362 208.101 124.227V126.948C207.324 126.805 206.4 126.38 206.4 125.588ZM210.937 129.558C210.937 130.385 209.99 130.783 209.236 130.919V128.197C209.99 128.332 210.937 128.73 210.937 129.558V129.558Z" fill="#B78813"/>
<path d="M211.164 125.361H212.298C212.298 123.752 210.736 123.018 209.463 122.849V121.674H208.328V122.849C207.055 123.018 205.493 123.752 205.493 125.361C205.493 126.895 207.005 127.693 208.328 127.873V130.692C207.507 130.55 206.627 130.111 206.627 129.331H205.493C205.493 130.799 206.868 131.667 208.328 131.847V133.017H209.463V131.843C210.736 131.674 212.298 130.94 212.298 129.331C212.298 127.722 210.736 126.988 209.463 126.819V124C210.217 124.135 211.164 124.533 211.164 125.361V125.361ZM206.627 125.361C206.627 124.533 207.574 124.135 208.328 124V126.721C207.551 126.578 206.627 126.153 206.627 125.361ZM211.164 129.331C211.164 130.158 210.217 130.556 209.463 130.692V127.97C210.217 128.105 211.164 128.503 211.164 129.331V129.331Z" fill="#F7E714"/>
<path opacity="0.3" d="M214.325 135.004C207.675 135.004 202.308 129.66 202.308 123.038C202.308 120.133 203.358 117.461 204.992 115.486C200.325 117.112 196.941 121.527 196.941 126.755C196.941 133.378 202.308 138.722 208.958 138.722C212.692 138.722 216.075 136.979 218.292 134.307C217.009 134.772 215.725 135.004 214.325 135.004Z" fill="#B78813"/>
<path d="M128.572 103.751C136.885 103.751 143.623 97.0409 143.623 88.7635C143.623 80.4861 136.885 73.7759 128.572 73.7759C120.26 73.7759 113.522 80.4861 113.522 88.7635C113.522 97.0409 120.26 103.751 128.572 103.751Z" fill="#F7E714"/>
<path d="M128.572 102.589C136.24 102.589 142.456 96.3991 142.456 88.7633C142.456 81.1276 136.24 74.9376 128.572 74.9376C120.904 74.9376 114.688 81.1276 114.688 88.7633C114.688 96.3991 120.904 102.589 128.572 102.589Z" fill="#E5AE15"/>
<path d="M128.572 100.963C122.038 100.963 116.671 95.6182 116.671 89.112C116.671 82.6057 122.038 77.2614 128.572 77.2614C135.105 77.2614 140.472 82.6057 140.472 89.112C140.472 95.6182 135.105 100.963 128.572 100.963ZM128.572 77.7261C122.271 77.7261 117.138 82.8381 117.138 89.112C117.138 95.3858 122.271 100.498 128.572 100.498C134.872 100.498 140.006 95.3858 140.006 89.112C140.006 82.8381 134.872 77.7261 128.572 77.7261Z" fill="#D8A61A"/>
<path d="M128.572 100.614C122.038 100.614 116.671 95.2698 116.671 88.7635C116.671 82.2573 122.038 76.9129 128.572 76.9129C135.105 76.9129 140.472 82.2573 140.472 88.7635C140.472 95.2698 135.105 100.614 128.572 100.614ZM128.572 77.3776C122.271 77.3776 117.138 82.4897 117.138 88.7635C117.138 95.0374 122.271 100.149 128.572 100.149C134.872 100.149 140.006 95.0374 140.006 88.7635C140.006 82.4897 134.872 77.3776 128.572 77.3776Z" fill="#F7E714"/>
<path d="M128.572 75.7509C136.039 75.7509 142.222 81.6762 142.456 89.1119C142.456 88.9957 142.456 88.8795 142.456 88.7633C142.456 81.2115 136.272 74.9376 128.572 74.9376C120.988 74.9376 114.688 81.0953 114.688 88.7633C114.688 88.8795 114.688 88.9957 114.688 89.1119C114.921 81.6762 120.988 75.7509 128.572 75.7509Z" fill="#B78813"/>
<path d="M133.171 83.9813V82.553H125.182V91.8372H123.73V93.2656H125.182V95.4081H126.635V93.2656H129.54V91.8372H126.635V89.6947H132.444V88.2664H126.635V83.9813H133.171Z" fill="#B78813"/>
<path d="M133.571 83.5807V82.1523H125.583V91.4365H124.131V92.8649H125.583V95.0074H127.036V92.8649H129.94V91.4365H127.036V89.294H132.845V87.8657H127.036V83.5807H133.571Z" fill="#F7E714"/>
<path opacity="0.3" d="M135.222 98.9878C126.938 98.9878 120.171 92.2492 120.171 84.0003C120.171 80.3986 121.455 77.1455 123.555 74.4733C117.721 76.4484 113.405 82.0252 113.405 88.5314C113.405 96.7803 120.171 103.519 128.455 103.519C133.122 103.519 137.322 101.428 140.006 98.0583C138.606 98.7554 136.972 98.9878 135.222 98.9878Z" fill="#B78813"/>
<path d="M115.155 131.751C121.791 131.751 127.172 126.393 127.172 119.784C127.172 113.175 121.791 107.817 115.155 107.817C108.518 107.817 103.137 113.175 103.137 119.784C103.137 126.393 108.518 131.751 115.155 131.751Z" fill="#F7E714"/>
<path d="M115.155 130.822C121.276 130.822 126.238 125.88 126.238 119.784C126.238 113.689 121.276 108.747 115.155 108.747C109.033 108.747 104.071 113.689 104.071 119.784C104.071 125.88 109.033 130.822 115.155 130.822Z" fill="#E5AE15"/>
<path d="M115.155 129.66C109.904 129.66 105.588 125.361 105.588 120.133C105.588 114.905 109.904 110.606 115.155 110.606C120.405 110.606 124.722 114.905 124.722 120.133C124.722 125.361 120.405 129.66 115.155 129.66ZM115.155 110.955C110.138 110.955 105.938 115.021 105.938 120.133C105.938 125.245 110.021 129.311 115.155 129.311C120.171 129.311 124.372 125.245 124.372 120.133C124.372 115.021 120.171 110.955 115.155 110.955Z" fill="#D8A61A"/>
<path d="M115.155 129.312C109.904 129.312 105.588 125.013 105.588 119.785C105.588 114.556 109.904 110.258 115.155 110.258C120.405 110.258 124.722 114.556 124.722 119.785C124.722 125.013 120.405 129.312 115.155 129.312ZM115.155 110.722C110.138 110.722 105.938 114.789 105.938 119.901C105.938 124.897 110.021 129.079 115.155 129.079C120.171 129.079 124.372 125.013 124.372 119.901C124.255 114.789 120.171 110.722 115.155 110.722Z" fill="#F7E714"/>
<path d="M115.155 109.328C121.222 109.328 126.122 114.091 126.238 120.133C126.238 120.017 126.238 119.901 126.238 119.784C126.238 113.627 121.222 108.747 115.155 108.747C108.971 108.747 104.071 113.743 104.071 119.784C104.071 119.901 104.071 120.017 104.071 120.133C104.187 114.208 109.088 109.328 115.155 109.328Z" fill="#B78813"/>
<path d="M119.005 117.693V117.344L118.655 117.461H117.721C117.605 116.996 117.488 116.647 117.138 116.299H118.421C118.538 116.299 118.538 116.299 118.655 116.183L119.005 115.602V115.485V115.137H118.538V115.253H111.654C111.538 115.253 111.538 115.253 111.421 115.369L111.304 115.602C111.188 115.602 111.071 115.602 111.071 115.602V115.95C111.071 116.066 111.188 116.183 111.304 116.183H115.038C115.738 116.183 116.438 116.647 116.671 117.344H111.771C111.654 117.344 111.654 117.344 111.538 117.461L111.304 117.809H111.071V118.158V118.274C111.071 118.39 111.188 118.506 111.304 118.506H116.671C116.438 119.203 115.738 119.668 115.038 119.668H111.188C111.071 119.668 110.954 119.784 110.954 119.9V120.714C110.954 120.83 110.954 120.83 111.071 120.83L116.321 125.826H117.255C117.371 125.826 117.488 125.71 117.488 125.593V125.245L117.138 125.129L112.471 120.714H115.038C116.321 120.714 117.488 119.784 117.721 118.506H118.421C118.538 118.506 118.538 118.506 118.655 118.39L119.005 117.809C119.005 117.809 119.005 117.809 119.005 117.693Z" fill="#B78813"/>
<path d="M117.254 116.066H118.538C118.654 116.066 118.654 116.066 118.771 115.95L119.121 115.369C119.238 115.253 119.121 115.021 118.888 115.021H111.771C111.654 115.021 111.654 115.021 111.537 115.137L111.187 115.718C111.071 115.834 111.187 116.066 111.421 116.066H115.154C115.854 116.066 116.554 116.531 116.788 117.228H111.887C111.771 117.228 111.771 117.228 111.654 117.344L111.304 117.925C111.187 118.041 111.304 118.274 111.537 118.274H116.904C116.671 118.971 115.971 119.436 115.271 119.436H111.421C111.304 119.436 111.187 119.552 111.187 119.668V120.481C111.187 120.597 111.187 120.597 111.304 120.597L116.554 125.593H117.488C117.721 125.593 117.838 125.361 117.604 125.128L112.704 120.365H115.271C116.554 120.365 117.721 119.436 117.954 118.158H118.654C118.771 118.158 118.771 118.158 118.888 118.041L119.238 117.46C119.354 117.344 119.238 117.112 119.004 117.112H117.954C117.604 116.763 117.488 116.299 117.254 116.066Z" fill="#F7E714"/>
<path d="M111.188 118.042C111.188 117.925 111.188 117.925 111.188 117.809L111.538 117.228C111.538 117.112 111.655 117.112 111.771 117.112H116.671C116.671 117.112 116.671 117.228 116.788 117.228H111.888C111.771 117.228 111.771 117.228 111.654 117.344L111.188 118.042ZM111.188 115.834L111.538 115.253C111.538 115.137 111.655 115.137 111.771 115.137H118.888C119.005 115.137 119.121 115.253 119.121 115.253C119.238 115.137 119.121 114.905 118.888 114.905H111.771C111.655 114.905 111.654 114.905 111.538 115.021L111.188 115.602C111.071 115.718 111.071 115.834 111.188 115.834ZM118.771 117.112H117.721C117.605 116.763 117.488 116.415 117.255 116.183H117.138C117.371 116.531 117.605 116.88 117.721 117.344H118.771C118.888 117.344 119.005 117.461 119.005 117.461C119.121 117.344 119.005 117.112 118.771 117.112ZM111.188 119.552H115.038C115.738 119.552 116.438 119.087 116.671 118.39H116.555C116.321 118.971 115.738 119.436 115.038 119.436H111.188C111.071 119.436 110.954 119.552 110.954 119.668V119.784C110.954 119.668 111.071 119.552 111.188 119.552ZM112.705 120.598H112.471L117.371 125.361C117.371 125.361 117.371 125.361 117.371 125.477C117.371 125.361 117.371 125.245 117.371 125.245L112.705 120.598Z" fill="#FFFF00"/>
<path opacity="0.3" d="M120.521 128.034C113.871 128.034 108.504 122.689 108.504 116.067C108.504 113.162 109.554 110.49 111.188 108.515C106.521 110.141 103.137 114.556 103.137 119.785C103.137 126.407 108.504 131.751 115.155 131.751C118.888 131.751 122.272 130.009 124.488 127.336C123.205 127.801 121.922 128.034 120.521 128.034Z" fill="#B78813"/>
<path d="M224.243 171.485C233.135 171.485 240.344 164.307 240.344 155.452C240.344 146.597 233.135 139.419 224.243 139.419C215.351 139.419 208.142 146.597 208.142 155.452C208.142 164.307 215.351 171.485 224.243 171.485Z" fill="#F7E714"/>
<path d="M224.242 170.323C232.49 170.323 239.176 163.665 239.176 155.452C239.176 147.239 232.49 140.581 224.242 140.581C215.995 140.581 209.308 147.239 209.308 155.452C209.308 163.665 215.995 170.323 224.242 170.323Z" fill="#E5AE15"/>
<path d="M224.242 168.697C217.125 168.697 211.409 163.004 211.409 155.917C211.409 148.83 217.125 143.137 224.242 143.137C231.359 143.137 237.076 148.83 237.076 155.917C237.076 163.004 231.243 168.697 224.242 168.697ZM224.242 143.602C217.475 143.602 211.992 149.062 211.992 155.801C211.992 162.539 217.475 168 224.242 168C231.009 168 236.493 162.539 236.493 155.801C236.493 149.178 231.009 143.602 224.242 143.602Z" fill="#D8A61A"/>
<path d="M224.242 168.348C217.125 168.348 211.409 162.655 211.409 155.568C211.409 148.481 217.125 142.788 224.242 142.788C231.359 142.788 237.076 148.481 237.076 155.568C237.076 162.655 231.243 168.348 224.242 168.348ZM224.242 143.253C217.475 143.253 211.992 148.713 211.992 155.452C211.992 162.191 217.475 167.651 224.242 167.651C231.009 167.651 236.493 162.191 236.493 155.452C236.493 148.713 231.009 143.253 224.242 143.253Z" fill="#F7E714"/>
<path d="M224.242 141.51C232.293 141.51 238.943 147.9 239.176 155.917C239.176 155.8 239.176 155.684 239.176 155.452C239.176 147.203 232.526 140.581 224.242 140.581C215.959 140.581 209.308 147.203 209.308 155.452C209.308 155.568 209.308 155.684 209.308 155.917C209.542 147.9 216.075 141.51 224.242 141.51Z" fill="#B78813"/>
<path d="M223.929 158.863L219.742 156.389L223.926 162.295L228.115 156.389L223.926 158.863H223.929ZM223.991 148.637L219.806 155.593L223.991 158.071L228.178 155.595L223.991 148.637Z" fill="#B78813"/>
<path d="M224.33 158.662L220.143 156.188L224.327 162.095L228.516 156.188L224.327 158.662H224.33ZM224.392 148.436L220.207 155.392L224.392 157.871L228.579 155.395L224.392 148.436Z" fill="#F7E714"/>
<path opacity="0.3" d="M231.359 166.606C222.492 166.606 215.259 159.402 215.259 150.573C215.259 146.738 216.659 143.137 218.875 140.348C212.575 142.556 208.025 148.481 208.025 155.568C208.025 164.398 215.259 171.602 224.126 171.602C229.143 171.602 233.693 169.278 236.609 165.676C234.976 166.257 233.226 166.606 231.359 166.606Z" fill="#B78813"/>
<path d="M173.489 184.993C180.415 184.993 186.029 179.402 186.029 172.505C186.029 165.609 180.415 160.018 173.489 160.018C166.564 160.018 160.949 165.609 160.949 172.505C160.949 179.402 166.564 184.993 173.489 184.993Z" fill="#F7E714"/>
<path d="M173.489 184.025C179.878 184.025 185.057 178.868 185.057 172.505C185.057 166.143 179.878 160.986 173.489 160.986C167.1 160.986 161.92 166.143 161.92 172.505C161.92 178.868 167.1 184.025 173.489 184.025Z" fill="#E5AE15"/>
<path d="M173.489 182.794C168.013 182.794 163.51 178.309 163.51 172.857C163.51 167.405 168.013 162.92 173.489 162.92C178.964 162.92 183.467 167.405 183.467 172.857C183.467 178.309 178.964 182.794 173.489 182.794ZM173.489 163.272C168.19 163.272 163.951 167.581 163.951 172.769C163.951 177.957 168.278 182.266 173.489 182.266C178.699 182.266 183.026 178.045 183.026 172.769C183.026 167.493 178.787 163.272 173.489 163.272Z" fill="#D8A61A"/>
<path d="M173.489 182.442C168.013 182.442 163.51 177.957 163.51 172.505C163.51 167.053 168.013 162.568 173.489 162.568C178.964 162.568 183.467 167.053 183.467 172.505C183.467 177.957 178.964 182.442 173.489 182.442ZM173.489 162.92C168.19 162.92 163.951 167.229 163.951 172.417C163.951 177.606 168.278 181.915 173.489 181.915C178.699 181.915 183.026 177.782 183.026 172.505C183.026 167.229 178.787 162.92 173.489 162.92Z" fill="#F7E714"/>
<path d="M173.488 161.601C179.758 161.601 184.88 166.614 185.057 172.857C185.057 172.769 185.057 172.681 185.057 172.505C185.057 166.086 179.847 160.986 173.488 160.986C167.13 160.986 161.832 166.086 161.832 172.505C161.832 172.593 161.832 172.681 161.832 172.857C162.009 166.614 167.13 161.601 173.488 161.601Z" fill="#B78813"/>
<path d="M174.664 168.806C175.593 168.806 176.47 169.202 177.133 169.921L178.091 169.047C177.179 168.058 175.962 167.513 174.664 167.513C173.366 167.513 172.149 168.058 171.238 169.048C170.784 169.541 170.43 170.117 170.196 170.744H168.514V172.036H169.887C169.863 172.25 169.846 172.465 169.846 172.682C169.846 172.9 169.863 173.115 169.887 173.329H168.514V174.621H170.196C170.431 175.248 170.782 175.823 171.238 176.318C172.149 177.307 173.366 177.851 174.664 177.851C175.962 177.851 177.179 177.307 178.091 176.318L177.132 175.444C176.47 176.163 175.593 176.559 174.664 176.559C173.735 176.559 172.859 176.164 172.196 175.444C171.973 175.195 171.784 174.918 171.634 174.621H174.362V173.329H171.203C171.171 173.117 171.146 172.902 171.146 172.682C171.146 172.463 171.171 172.248 171.203 172.036H174.362V170.744H171.634C171.79 170.449 171.969 170.167 172.196 169.921C172.859 169.202 173.735 168.806 174.664 168.806Z" fill="#B78813"/>
<path d="M174.967 168.502C175.897 168.502 176.773 168.898 177.436 169.618L178.395 168.744C177.482 167.755 176.265 167.21 174.967 167.21C173.669 167.21 172.452 167.755 171.541 168.745C171.087 169.238 170.734 169.814 170.499 170.441H168.817V171.733H170.191C170.166 171.946 170.149 172.161 170.149 172.379C170.149 172.597 170.166 172.812 170.191 173.025H168.817V174.317H170.499C170.735 174.944 171.085 175.52 171.541 176.014C172.452 177.003 173.669 177.548 174.967 177.548C176.265 177.548 177.482 177.003 178.394 176.014L177.436 175.141C176.773 175.86 175.897 176.256 174.967 176.256C174.038 176.256 173.162 175.86 172.499 175.141C172.277 174.892 172.088 174.615 171.937 174.317H174.666V173.025H171.507C171.474 172.813 171.449 172.599 171.449 172.379C171.449 172.159 171.474 171.945 171.507 171.733H174.666V170.441H171.937C172.093 170.145 172.272 169.864 172.499 169.618C173.162 168.898 174.038 168.502 174.967 168.502Z" fill="#F7E714"/>
<path d="M53.7855 157.66C60.4224 157.66 65.8026 152.302 65.8026 145.693C65.8026 139.084 60.4224 133.726 53.7855 133.726C47.1486 133.726 41.7683 139.084 41.7683 145.693C41.7683 152.302 47.1486 157.66 53.7855 157.66Z" fill="#F7E714"/>
<path d="M53.7854 156.73C59.9068 156.73 64.8692 151.789 64.8692 145.693C64.8692 139.597 59.9068 134.656 53.7854 134.656C47.664 134.656 42.7017 139.597 42.7017 145.693C42.7017 151.789 47.664 156.73 53.7854 156.73Z" fill="#E5AE15"/>
<path d="M53.7854 155.452C48.5352 155.452 44.2184 151.154 44.2184 145.925C44.2184 140.697 48.5352 136.398 53.7854 136.398C59.0356 136.398 63.3525 140.697 63.3525 145.925C63.3525 151.27 59.0356 155.452 53.7854 155.452ZM53.7854 136.863C48.7686 136.863 44.5684 140.929 44.5684 146.042C44.5684 151.037 48.6519 155.22 53.7854 155.22C58.8023 155.22 63.0025 151.154 63.0025 146.042C62.8858 140.929 58.8023 136.863 53.7854 136.863Z" fill="#D8A61A"/>
<path d="M53.7854 155.22C48.5352 155.22 44.2184 150.921 44.2184 145.693C44.2184 140.465 48.5352 136.166 53.7854 136.166C59.0356 136.166 63.3525 140.465 63.3525 145.693C63.3525 150.921 59.0356 155.22 53.7854 155.22ZM53.7854 136.515C48.7686 136.515 44.5684 140.581 44.5684 145.693C44.5684 150.689 48.6519 154.872 53.7854 154.872C58.8023 154.872 63.0025 150.805 63.0025 145.693C62.8858 140.581 58.8023 136.515 53.7854 136.515Z" fill="#F7E714"/>
<path d="M53.7854 135.237C59.8524 135.237 64.7525 140 64.8692 146.042C64.8692 145.925 64.8692 145.809 64.8692 145.693C64.8692 139.535 59.8524 134.656 53.7854 134.656C47.7185 134.656 42.7017 139.652 42.7017 145.693C42.7017 145.809 42.7017 145.925 42.7017 146.042C42.8183 140 47.7185 135.237 53.7854 135.237Z" fill="#B78813"/>
<path d="M54.4906 140.602H50.7603V145.825H49.6125V146.985H50.7603V148.146H49.6125V149.306H50.7603V151.047H51.9081V149.306H54.2037V148.146H51.9081V146.985H54.4906C56.2352 146.985 57.647 145.558 57.647 143.794C57.647 142.03 56.2352 140.602 54.4906 140.602ZM54.4906 145.825H51.9081V141.763H54.4906C55.5982 141.763 56.4992 142.674 56.4992 143.794C56.4992 144.914 55.5982 145.825 54.4906 145.825Z" fill="#B78813"/>
<path d="M54.691 140.402H50.9608V145.624H49.813V146.785H50.9608V147.945H49.813V149.106H50.9608V150.847H52.1085V149.106H54.4041V147.945H52.1085V146.785H54.691C56.4357 146.785 57.8474 145.357 57.8474 143.593C57.8474 141.829 56.4357 140.402 54.691 140.402ZM54.691 145.624H52.1085V141.562H54.691C55.7986 141.562 56.6996 142.473 56.6996 143.593C56.6996 144.713 55.7986 145.624 54.691 145.624Z" fill="#F7E714"/>
<path opacity="0.3" d="M59.1523 153.942C52.5021 153.942 47.1352 148.598 47.1352 141.975C47.1352 139.071 48.1852 136.399 49.8186 134.424C45.1518 136.05 41.7683 140.465 41.7683 145.693C41.7683 152.316 47.1352 157.66 53.7855 157.66C57.5189 157.66 60.9024 155.917 63.1192 153.245C61.8358 153.71 60.4357 153.942 59.1523 153.942Z" fill="#B78813"/>
<path d="M19.9507 59.3694C26.5876 59.3694 31.9679 54.0117 31.9679 47.4026C31.9679 40.7935 26.5876 35.4358 19.9507 35.4358C13.3139 35.4358 7.93359 40.7935 7.93359 47.4026C7.93359 54.0117 13.3139 59.3694 19.9507 59.3694Z" fill="#F7E714"/>
<path d="M19.9507 58.4402C26.0721 58.4402 31.0345 53.4986 31.0345 47.4029C31.0345 41.3071 26.0721 36.3655 19.9507 36.3655C13.8293 36.3655 8.86694 41.3071 8.86694 47.4029C8.86694 53.4986 13.8293 58.4402 19.9507 58.4402Z" fill="#E5AE15"/>
<path d="M19.9507 57.2785C14.7005 57.2785 10.3837 52.9797 10.3837 47.7515C10.3837 42.5233 14.7005 38.2245 19.9507 38.2245C25.2009 38.2245 29.5178 42.5233 29.5178 47.7515C29.5178 52.9797 25.2009 57.2785 19.9507 57.2785ZM19.9507 38.5731C14.9339 38.5731 10.7337 42.6395 10.7337 47.7515C10.7337 52.7474 14.8172 56.9299 19.9507 56.9299C24.9676 56.9299 29.1678 52.8635 29.1678 47.7515C29.1678 42.6395 24.9676 38.5731 19.9507 38.5731Z" fill="#D8A61A"/>
<path d="M19.9507 56.9296C14.7005 56.9296 10.3837 52.6308 10.3837 47.4026C10.3837 42.1744 14.7005 37.8756 19.9507 37.8756C25.2009 37.8756 29.5178 42.1744 29.5178 47.4026C29.5178 52.6308 25.2009 56.9296 19.9507 56.9296ZM19.9507 38.2242C14.9339 38.2242 10.7337 42.2905 10.7337 47.4026C10.7337 52.5146 14.8172 56.581 19.9507 56.581C24.9676 56.581 29.1678 52.5146 29.1678 47.4026C29.1678 42.2905 24.9676 38.2242 19.9507 38.2242Z" fill="#F7E714"/>
<path d="M19.9507 36.9465C26.0176 36.9465 30.9178 41.7099 31.0345 47.7514C31.0345 47.6353 31.0345 47.5191 31.0345 47.4029C31.0345 41.2452 26.0176 36.3655 19.9507 36.3655C13.8838 36.3655 8.86694 41.3614 8.86694 47.4029C8.86694 47.5191 8.86694 47.6353 8.86694 47.7514C8.98361 41.7099 13.8838 36.9465 19.9507 36.9465Z" fill="#B78813"/>
<path d="M23.9176 45.3115V44.963L23.5676 45.0792H22.6342C22.5175 44.6144 22.4009 44.2659 22.0509 43.9173H23.3342C23.4509 43.9173 23.4509 43.9174 23.5676 43.8012L23.9176 43.2203V43.1041V42.7555H23.4509V42.8717H16.5673C16.4506 42.8717 16.4506 42.8717 16.334 42.9879L16.2173 43.2203C16.1006 43.2203 15.984 43.2203 15.984 43.2203V43.5688C15.984 43.685 16.1006 43.8012 16.2173 43.8012H19.8341C20.5341 43.8012 21.2342 44.2659 21.4675 44.963H16.5673C16.4506 44.963 16.4506 44.963 16.334 45.0792L16.1006 45.4277H15.8673V45.7763V45.8925C15.8673 46.0086 15.984 46.1248 16.1006 46.1248H21.4675C21.2342 46.8219 20.5341 47.2866 19.8341 47.2866H15.984C15.8673 47.2866 15.7506 47.4028 15.7506 47.519V48.3323C15.7506 48.4485 15.7506 48.4485 15.8673 48.4485L21.1175 53.4443H22.0509C22.1675 53.4443 22.2842 53.3281 22.2842 53.212V52.8634L21.9342 52.7472L17.2673 48.3323H19.8341C21.1175 48.3323 22.2842 47.4028 22.5175 46.1248H23.2176C23.3342 46.1248 23.3342 46.1248 23.4509 46.0086L23.8009 45.4277C23.8009 45.4277 23.9176 45.3115 23.9176 45.3115Z" fill="#B78813"/>
<path d="M22.0515 43.569H23.3349C23.4516 43.569 23.4516 43.569 23.5682 43.4529L23.9182 42.8719C24.0349 42.7558 23.9182 42.5234 23.6849 42.5234H16.5679C16.4513 42.5234 16.4513 42.5234 16.3346 42.6396L15.9846 43.2205C15.8679 43.3367 15.9846 43.569 16.2179 43.569H19.8347C20.5348 43.569 21.2348 44.0338 21.4681 44.7309H16.5679C16.4513 44.7309 16.4513 44.7309 16.3346 44.847L15.9846 45.428C15.8679 45.5441 15.9846 45.7765 16.2179 45.7765H21.5848C21.3515 46.4736 20.6514 46.9383 19.9514 46.9383H16.1013C15.9846 46.9383 15.8679 47.0545 15.8679 47.1707V47.984C15.8679 48.1002 15.8679 48.1002 15.9846 48.1002L21.2348 53.096H22.1682C22.4015 53.096 22.5182 52.8636 22.2848 52.6313L17.3846 47.8678H19.8347C21.1181 47.8678 22.2848 46.9383 22.5182 45.6603H23.2182C23.3349 45.6603 23.3349 45.6603 23.4516 45.5441L23.8016 44.9632C23.9182 44.847 23.8016 44.6147 23.5682 44.6147H22.5182C22.5182 44.2661 22.2848 43.9176 22.0515 43.569Z" fill="#F7E714"/>
<path d="M15.984 45.6599C15.984 45.5437 15.984 45.5437 15.984 45.4275L16.334 44.8466C16.334 44.7304 16.4506 44.7304 16.5673 44.7304H21.4675C21.4675 44.7304 21.4675 44.8466 21.5842 44.8466H16.684C16.5673 44.8466 16.5673 44.8466 16.4506 44.9628L15.984 45.6599C15.984 45.6599 15.984 45.5437 15.984 45.6599ZM15.984 43.3363L16.334 42.7553C16.334 42.6392 16.4506 42.6392 16.5673 42.6392H23.6843C23.8009 42.6392 23.9176 42.7553 23.9176 42.7553C23.9176 42.6392 23.9176 42.4068 23.6843 42.4068H16.5673C16.4506 42.4068 16.4506 42.4068 16.334 42.523L15.984 43.1039C15.984 43.3363 15.984 43.3363 15.984 43.3363C15.984 43.4524 15.984 43.4524 15.984 43.3363ZM23.6843 44.7304H22.6342C22.5175 44.3819 22.4009 44.0334 22.1675 43.801H22.0509C22.2842 44.1495 22.5175 44.4981 22.6342 44.9628H23.6843C23.8009 44.9628 23.9176 45.079 23.9176 45.079C23.9176 44.9628 23.8009 44.7304 23.6843 44.7304ZM16.1006 47.1703H19.8341C20.5341 47.1703 21.2342 46.7056 21.4675 46.0085H21.3508C21.1175 46.5894 20.5341 47.0541 19.8341 47.0541H15.984C15.8673 47.0541 15.7506 47.1703 15.7506 47.2865V47.4026C15.8673 47.2865 15.984 47.1703 16.1006 47.1703ZM17.5007 48.2159H17.2673L22.1675 52.9794C22.1675 52.9794 22.1675 52.9794 22.1675 53.0956C22.1675 52.9794 22.1675 52.8632 22.1675 52.8632L17.5007 48.2159Z" fill="#FFFF00"/>
<path opacity="0.3" d="M25.3176 55.6516C18.6674 55.6516 13.3005 50.3072 13.3005 43.6848C13.3005 40.7802 14.3505 38.108 15.9839 36.1329C11.3171 37.7595 7.93359 42.1744 7.93359 47.4026C7.93359 54.025 13.3005 59.3694 19.9507 59.3694C23.6842 59.3694 27.0677 57.6267 29.2845 54.9545C28.0011 55.4192 26.7177 55.6516 25.3176 55.6516Z" fill="#B78813"/>
<path d="M17.6174 143.718C27.3472 143.718 35.2347 135.863 35.2347 126.174C35.2347 116.485 27.3472 108.631 17.6174 108.631C7.88757 108.631 0 116.485 0 126.174C0 135.863 7.88757 143.718 17.6174 143.718Z" fill="#F7E714"/>
<path d="M17.6175 142.323C26.574 142.323 33.8348 135.093 33.8348 126.174C33.8348 117.255 26.574 110.025 17.6175 110.025C8.66089 110.025 1.40015 117.255 1.40015 126.174C1.40015 135.093 8.66089 142.323 17.6175 142.323Z" fill="#E5AE15"/>
<path d="M17.6174 140.581C9.91707 140.581 3.61682 134.307 3.61682 126.639C3.61682 118.971 9.91707 112.697 17.6174 112.697C25.3177 112.697 31.6179 118.971 31.6179 126.639C31.6179 134.307 25.3177 140.581 17.6174 140.581ZM17.6174 113.278C10.2671 113.278 4.20018 119.319 4.20018 126.639C4.20018 133.958 10.2671 140 17.6174 140C24.9677 140 31.0346 133.958 31.0346 126.639C31.0346 119.319 24.9677 113.278 17.6174 113.278Z" fill="#D8A61A"/>
<path d="M17.6174 140.116C9.91707 140.116 3.61682 133.842 3.61682 126.174C3.61682 118.506 9.91707 112.232 17.6174 112.232C25.3177 112.232 31.6179 118.506 31.6179 126.174C31.6179 133.842 25.3177 140.116 17.6174 140.116ZM17.6174 112.813C10.2671 112.813 4.20018 118.855 4.20018 126.174C4.20018 133.494 10.2671 139.535 17.6174 139.535C24.9677 139.535 31.0346 133.494 31.0346 126.174C31.0346 118.738 24.9677 112.813 17.6174 112.813Z" fill="#F7E714"/>
<path d="M17.6175 110.838C26.4845 110.838 33.6014 117.809 33.8348 126.523C33.8348 126.407 33.8348 126.174 33.8348 126.058C33.8348 117.112 26.6012 109.909 17.6175 109.909C8.63377 109.909 1.40015 117.112 1.40015 126.058C1.40015 126.174 1.40015 126.407 1.40015 126.523C1.63349 117.809 8.75044 110.838 17.6175 110.838Z" fill="#B78813"/>
<path d="M19.0726 125.514H22.4677V127.166H18.307V128.817H22.4677V130.469H18.307V133.772H16.6427V130.469H12.482V128.817H16.6427V127.166H12.482V125.514H15.8772L11.6499 118.908H13.6221L17.4749 124.928L21.3277 118.908H23.2998L19.0726 125.514Z" fill="#B78813"/>
<path d="M19.4733 125.114H22.8684V126.765H18.7078V128.417H22.8684V130.068H18.7078V133.371H17.0435V130.068H12.8828V128.417H17.0435V126.765H12.8828V125.114H16.2779L12.0507 118.508H14.0228L17.8756 124.527L21.7284 118.508H23.7006L19.4733 125.114Z" fill="#F7E714"/>
<path opacity="0.3" d="M25.4344 138.257C15.7506 138.257 7.81698 130.357 7.81698 120.714C7.81698 116.531 9.33371 112.581 11.7838 109.56C5.01687 112 0 118.506 0 126.174C0 135.818 7.93365 143.718 17.6174 143.718C23.1009 143.718 28.0011 141.278 31.2679 137.328C29.4012 137.909 27.4178 138.257 25.4344 138.257Z" fill="#B78813"/>
<path d="M18.9224 101.396C25.5593 101.396 30.9396 96.0385 30.9396 89.4294C30.9396 82.8203 25.5593 77.4626 18.9224 77.4626C12.2855 77.4626 6.90527 82.8203 6.90527 89.4294C6.90527 96.0385 12.2855 101.396 18.9224 101.396Z" fill="#F7E714"/>
<path d="M18.9224 100.467C25.0438 100.467 30.0062 95.5253 30.0062 89.4296C30.0062 83.3338 25.0438 78.3922 18.9224 78.3922C12.801 78.3922 7.83862 83.3338 7.83862 89.4296C7.83862 95.5253 12.801 100.467 18.9224 100.467Z" fill="#E5AE15"/>
<path d="M18.9224 99.1888C13.6722 99.1888 9.35535 94.8901 9.35535 89.6619C9.35535 84.4337 13.6722 80.1349 18.9224 80.1349C24.1726 80.1349 28.4895 84.4337 28.4895 89.6619C28.4895 94.8901 24.1726 99.1888 18.9224 99.1888ZM18.9224 80.5996C13.9055 80.5996 9.70536 84.666 9.70536 89.7781C9.70536 94.7739 13.7889 98.9565 18.9224 98.9565C23.9393 98.9565 28.1394 94.8901 28.1394 89.7781C28.1394 84.666 23.9393 80.5996 18.9224 80.5996Z" fill="#D8A61A"/>
<path d="M18.9224 98.9567C13.6722 98.9567 9.35535 94.658 9.35535 89.4297C9.35535 84.2015 13.6722 79.9028 18.9224 79.9028C24.1726 79.9028 28.4895 84.2015 28.4895 89.4297C28.4895 94.658 24.1726 98.9567 18.9224 98.9567ZM18.9224 80.2513C13.9055 80.2513 9.70536 84.3177 9.70536 89.4297C9.70536 94.5418 13.7889 98.6082 18.9224 98.6082C23.9393 98.6082 28.1394 94.5418 28.1394 89.4297C28.1394 84.3177 23.9393 80.2513 18.9224 80.2513Z" fill="#F7E714"/>
<path d="M18.9224 78.9731C24.9893 78.9731 29.8895 83.7366 30.0062 89.7781C30.0062 89.6619 30.0062 89.5457 30.0062 89.4295C30.0062 83.2719 24.9893 78.3922 18.9224 78.3922C12.8555 78.3922 7.83862 83.2719 7.83862 89.4295C7.83862 89.5457 7.83862 89.6619 7.83862 89.7781C7.95529 83.7366 12.8555 78.9731 18.9224 78.9731Z" fill="#B78813"/>
<path d="M20.9226 88.027H22.0569C22.0569 86.4181 20.4944 85.6842 19.2212 85.5152V84.3407H18.0869V85.5152C16.8137 85.6842 15.2512 86.4181 15.2512 88.027C15.2512 89.5617 16.7632 90.3597 18.0869 90.5395V93.3581C17.2657 93.2158 16.3855 92.7774 16.3855 91.997H15.2512C15.2512 93.4653 16.6265 94.333 18.0869 94.5128V95.6834H19.2212V94.5094C20.4944 94.3404 22.0569 93.606 22.0569 91.997C22.0569 90.388 20.4944 89.6542 19.2212 89.4851V86.6659C19.9755 86.8015 20.9226 87.1996 20.9226 88.027V88.027ZM16.3855 88.027C16.3855 87.1996 17.3326 86.8015 18.0869 86.6659V89.3876C17.3094 89.2441 16.3855 88.8193 16.3855 88.027ZM20.9226 91.997C20.9226 92.8244 19.9755 93.2226 19.2212 93.3581V90.6359C19.9755 90.7714 20.9226 91.1695 20.9226 91.997V91.997Z" fill="#B78813"/>
<path d="M21.1495 87.8001H22.2838C22.2838 86.1912 20.7213 85.4573 19.4481 85.2883V84.1137H18.3138V85.2883C17.0406 85.4573 15.4781 86.1912 15.4781 87.8001C15.4781 89.3348 16.9901 90.1328 18.3138 90.3125V93.1312C17.4926 92.9889 16.6124 92.5505 16.6124 91.7701H15.4781C15.4781 93.2384 16.8535 94.1061 18.3138 94.2859V95.4565H19.4481V94.2825C20.7213 94.1135 22.2838 93.379 22.2838 91.7701C22.2838 90.1611 20.7213 89.4272 19.4481 89.2582V86.439C20.2024 86.5745 21.1495 86.9727 21.1495 87.8001V87.8001ZM16.6124 87.8001C16.6124 86.9727 17.5595 86.5745 18.3138 86.439V89.1607C17.5363 89.0172 16.6124 88.5924 16.6124 87.8001ZM21.1495 91.7701C21.1495 92.5975 20.2024 92.9957 19.4481 93.1312V90.409C20.2024 90.5445 21.1495 90.9426 21.1495 91.7701V91.7701Z" fill="#F7E714"/>
<path opacity="0.3" d="M24.2893 97.6787C17.639 97.6787 12.2722 92.3344 12.2722 85.7119C12.2722 82.8074 13.3222 80.1352 14.9556 78.1601C10.2887 79.7866 6.90527 84.2016 6.90527 89.4298C6.90527 96.0522 12.2722 101.397 18.9224 101.397C22.6559 101.397 26.0394 99.6539 28.2561 96.9817C26.9728 97.4464 25.6894 97.6787 24.2893 97.6787Z" fill="#B78813"/>
<path d="M57.2856 57.5105C66.3711 57.5105 73.7363 50.1762 73.7363 41.1288C73.7363 32.0814 66.3711 24.747 57.2856 24.747C48.2002 24.747 40.835 32.0814 40.835 41.1288C40.835 50.1762 48.2002 57.5105 57.2856 57.5105Z" fill="#F7E714"/>
<path d="M57.2857 56.2329C65.6623 56.2329 72.453 49.4707 72.453 41.1292C72.453 32.7876 65.6623 26.0254 57.2857 26.0254C48.909 26.0254 42.1184 32.7876 42.1184 41.1292C42.1184 49.4707 48.909 56.2329 57.2857 56.2329Z" fill="#E5AE15"/>
<path d="M57.2856 54.4899C50.0519 54.4899 44.2184 48.6808 44.2184 41.4774C44.2184 34.2741 50.0519 28.465 57.2856 28.465C64.5192 28.465 70.3528 34.2741 70.3528 41.4774C70.3528 48.6808 64.5192 54.4899 57.2856 54.4899ZM57.2856 29.0459C50.402 29.0459 44.8017 34.6227 44.8017 41.4774C44.8017 48.3322 50.402 53.909 57.2856 53.909C64.1692 53.909 69.7694 48.3322 69.7694 41.4774C69.7694 34.6227 64.2859 29.0459 57.2856 29.0459Z" fill="#D8A61A"/>
<path d="M57.2856 54.141C50.0519 54.141 44.2184 48.3319 44.2184 41.1285C44.2184 33.9252 50.0519 28.1161 57.2856 28.1161C64.5192 28.1161 70.3528 33.9252 70.3528 41.1285C70.4694 48.3319 64.5192 54.141 57.2856 54.141ZM57.2856 28.697C50.402 28.697 44.8017 34.2738 44.8017 41.1285C44.8017 47.9833 50.402 53.5601 57.2856 53.5601C64.1692 53.5601 69.7694 47.9833 69.7694 41.1285C69.7694 34.2738 64.2859 28.697 57.2856 28.697Z" fill="#F7E714"/>
<path d="M57.2857 26.8381C65.5694 26.8381 72.2196 33.3443 72.453 41.4771C72.453 41.3609 72.453 41.2448 72.453 41.0124C72.453 32.6473 65.686 25.9087 57.2857 25.9087C48.8853 25.9087 42.1184 32.6473 42.1184 41.0124C42.1184 41.1286 42.1184 41.2448 42.1184 41.4771C42.3518 33.3443 49.1187 26.8381 57.2857 26.8381Z" fill="#B78813"/>
<path d="M53.3623 42.4732V45.8183H51.7157V47.4908H54.1856V49.1634H55.8322V47.4908H57.4788V49.1634H59.1253V47.4482C60.7456 47.2399 62.0069 45.8467 62.0069 44.1458C62.0069 43.0419 61.4717 42.0685 60.6567 41.4589C61.2578 40.8367 61.5948 39.9999 61.5952 39.1282C61.5952 37.5744 60.5422 36.2757 59.1253 35.9019V34.1106H57.4788V35.7831H55.8322V34.1106H54.1856V35.7831H51.7157V37.4557H53.3623V42.4732ZM58.7137 45.8183H55.0089V42.4732H58.7137C59.6218 42.4732 60.3603 43.2234 60.3603 44.1458C60.3603 45.0682 59.6218 45.8183 58.7137 45.8183ZM55.0089 37.4557H58.302C59.2101 37.4557 59.9486 38.2058 59.9486 39.1282C59.9486 40.0506 59.2101 40.8007 58.302 40.8007H55.0089V37.4557Z" fill="#B78813"/>
<path d="M53.8231 42.0123V45.3574H52.1765V47.0299H54.6464V48.7024H56.293V47.0299H57.9396V48.7024H59.5862V46.9872C61.2064 46.779 62.4677 45.3858 62.4677 43.6848C62.4677 42.581 61.9325 41.6075 61.1175 40.9979C61.7186 40.3757 62.0556 39.539 62.056 38.6672C62.056 37.1135 61.003 35.8147 59.5862 35.4409V33.6497H57.9396V35.3222H56.293V33.6497H54.6464V35.3222H52.1765V36.9947H53.8231V42.0123ZM59.1745 45.3574H55.4697V42.0123H59.1745C60.0826 42.0123 60.8211 42.7624 60.8211 43.6848C60.8211 44.6072 60.0826 45.3574 59.1745 45.3574ZM55.4697 36.9947H58.7629C59.671 36.9947 60.4094 37.7448 60.4094 38.6672C60.4094 39.5896 59.671 40.3398 58.7629 40.3398H55.4697V36.9947Z" fill="#F7E714"/>
<path opacity="0.3" d="M64.6359 52.3985C55.5355 52.3985 48.1853 45.079 48.1853 36.0168C48.1853 32.0666 49.5853 28.4649 51.9187 25.6765C45.5018 27.884 40.835 33.9255 40.835 41.1288C40.835 50.191 48.1853 57.5105 57.2856 57.5105C62.4192 57.5105 66.9693 55.1869 70.0028 51.5852C68.3694 52.05 66.5027 52.3985 64.6359 52.3985Z" fill="#B78813"/>
<path d="M96.2539 77.4937C102.891 77.4937 108.271 72.136 108.271 65.5269C108.271 58.9178 102.891 53.56 96.2539 53.56C89.617 53.56 84.2367 58.9178 84.2367 65.5269C84.2367 72.136 89.617 77.4937 96.2539 77.4937Z" fill="#F7E714"/>
<path d="M96.2538 76.5642C102.375 76.5642 107.338 71.6226 107.338 65.5269C107.338 59.4311 102.375 54.4895 96.2538 54.4895C90.1324 54.4895 85.17 59.4311 85.17 65.5269C85.17 71.6226 90.1324 76.5642 96.2538 76.5642Z" fill="#E5AE15"/>
<path d="M96.2538 75.2862C91.0036 75.2862 86.6868 70.9874 86.6868 65.7592C86.6868 60.531 91.0036 56.2322 96.2538 56.2322C101.504 56.2322 105.821 60.531 105.821 65.7592C105.821 70.9874 101.504 75.2862 96.2538 75.2862ZM96.2538 56.697C91.237 56.697 87.0368 60.7633 87.0368 65.8754C87.0368 70.8712 91.1203 75.0538 96.2538 75.0538C101.271 75.0538 105.471 70.9874 105.471 65.8754C105.471 60.7633 101.271 56.697 96.2538 56.697Z" fill="#D8A61A"/>
<path d="M96.2538 75.054C91.0036 75.054 86.6868 70.7553 86.6868 65.527C86.6868 60.2988 91.0036 56.0001 96.2538 56.0001C101.504 56.0001 105.821 60.2988 105.821 65.527C105.821 70.7553 101.504 75.054 96.2538 75.054ZM96.2538 56.3486C91.237 56.3486 87.0368 60.415 87.0368 65.527C87.0368 70.6391 91.1203 74.7055 96.2538 74.7055C101.271 74.7055 105.471 70.6391 105.471 65.527C105.471 60.415 101.271 56.3486 96.2538 56.3486Z" fill="#F7E714"/>
<path d="M96.2538 55.0704C102.321 55.0704 107.221 59.8339 107.338 65.8754C107.338 65.7592 107.338 65.643 107.338 65.5269C107.338 59.3692 102.321 54.4895 96.2538 54.4895C90.1869 54.4895 85.17 59.3692 85.17 65.5269C85.17 65.643 85.17 65.7592 85.17 65.8754C85.2867 59.8339 90.1869 55.0704 96.2538 55.0704Z" fill="#B78813"/>
<path d="M96.8203 70.502C97.7947 70.502 98.6479 69.9113 98.8398 68.9874L97.9563 68.5431C97.83 69.0934 97.4918 69.4923 96.8203 69.4923H94.3465C94.7655 68.9874 95.1038 68.3109 95.1038 67.4728C95.1038 67.2961 95.0886 67.1244 95.0634 66.9679H96.8203V65.9582H94.71C94.296 65.1605 93.7911 64.7465 93.7911 63.9387C93.7913 63.5245 93.937 63.1234 94.2027 62.8057C94.4685 62.4879 94.8375 62.2737 95.2452 62.2003C95.6529 62.1269 96.0734 62.1991 96.4333 62.4043C96.7932 62.6095 97.0695 62.9346 97.2141 63.3228L98.1481 62.929C97.7442 61.894 96.7395 61.162 95.5581 61.162C94.0233 61.162 92.7814 62.4039 92.7814 63.9387C92.7814 64.8374 93.1802 65.4028 93.5336 65.9582H92.7814V66.9679H94.0284C94.0688 67.1244 94.094 67.2911 94.094 67.4728C94.094 68.8359 92.7814 69.4923 92.7814 69.4923V70.502H96.8203V70.502Z" fill="#B78813"/>
<path d="M97.222 70.1004C98.1964 70.1004 99.0497 69.5097 99.2415 68.5858L98.358 68.1415C98.2318 68.6918 97.8935 69.0907 97.222 69.0907H94.7482C95.1672 68.5858 95.5055 67.9093 95.5055 67.0712C95.5055 66.8945 95.4903 66.7228 95.4651 66.5663H97.222V65.5566H95.1117C94.6977 64.7589 94.1928 64.3449 94.1928 63.5371C94.193 63.1229 94.3387 62.7218 94.6045 62.4041C94.8703 62.0863 95.2392 61.872 95.6469 61.7987C96.0546 61.7253 96.4752 61.7975 96.835 62.0027C97.1949 62.2079 97.4713 62.533 97.6158 62.9212L98.5498 62.5274C98.1459 61.4924 97.1413 60.7604 95.9599 60.7604C94.4251 60.7604 93.1831 62.0023 93.1831 63.5371C93.1831 64.4358 93.5819 65.0012 93.9354 65.5566H93.1831V66.5663H94.4301C94.4705 66.7228 94.4958 66.8894 94.4958 67.0712C94.4958 68.4343 93.1831 69.0907 93.1831 69.0907V70.1004H97.222V70.1004Z" fill="#F7E714"/>
<path opacity="0.3" d="M101.621 73.7761C94.9705 73.7761 89.6036 68.4317 89.6036 61.8093C89.6036 58.9047 90.6536 56.2325 92.287 54.2574C87.6202 55.8839 84.2367 60.2989 84.2367 65.5271C84.2367 72.1495 89.6036 77.4939 96.2539 77.4939C99.9873 77.4939 103.371 75.7512 105.588 73.079C104.304 73.5437 103.021 73.7761 101.621 73.7761Z" fill="#B78813"/>
<path d="M117.138 43.917C129.316 43.917 139.189 34.0859 139.189 21.9585C139.189 9.83116 129.316 0 117.138 0C104.96 0 95.0872 9.83116 95.0872 21.9585C95.0872 34.0859 104.96 43.917 117.138 43.917Z" fill="#F7E714"/>
<path d="M117.138 42.2903C128.414 42.2903 137.556 33.1873 137.556 21.9583C137.556 10.7293 128.414 1.62637 117.138 1.62637C105.862 1.62637 96.7206 10.7293 96.7206 21.9583C96.7206 33.1873 105.862 42.2903 117.138 42.2903Z" fill="#E5AE15"/>
<path d="M117.138 39.9668C107.454 39.9668 99.5206 32.0664 99.5206 22.4232C99.5206 12.7801 107.454 4.87964 117.138 4.87964C126.822 4.87964 134.755 12.7801 134.755 22.4232C134.639 32.1825 126.822 39.9668 117.138 39.9668ZM117.138 5.8091C107.804 5.8091 100.337 13.361 100.337 22.5394C100.337 31.7178 107.921 39.2697 117.138 39.2697C126.355 39.2697 133.939 31.7178 133.939 22.5394C133.939 13.361 126.355 5.8091 117.138 5.8091Z" fill="#D8A61A"/>
<path d="M117.138 39.502C107.454 39.502 99.5206 31.6016 99.5206 21.9585C99.5206 12.3153 107.454 4.41489 117.138 4.41489C126.822 4.41489 134.755 12.3153 134.755 21.9585C134.755 31.6016 126.822 39.502 117.138 39.502ZM117.138 5.22816C107.804 5.22816 100.337 12.78 100.337 21.9585C100.337 31.1369 107.921 38.6887 117.138 38.6887C126.355 38.6887 133.939 31.1369 133.939 21.9585C133.939 12.78 126.355 5.22816 117.138 5.22816Z" fill="#F7E714"/>
<path d="M117.138 2.7882C128.222 2.7882 137.206 11.6181 137.439 22.5392C137.439 22.3069 137.439 22.1907 137.439 21.9583C137.439 10.8048 128.339 1.62637 117.021 1.62637C105.704 1.62637 96.7206 10.8048 96.7206 21.9583C96.7206 22.1907 96.7206 22.3069 96.7206 22.5392C97.0706 11.6181 106.054 2.7882 117.138 2.7882Z" fill="#B78813"/>
<path d="M120.717 18.7804H122.726C122.726 15.9312 119.959 14.6316 117.705 14.3324V12.2524H115.696V14.3324C113.441 14.6316 110.674 15.9312 110.674 18.7804C110.674 21.4981 113.352 22.9111 115.696 23.2295V28.2209C114.242 27.9688 112.683 27.1925 112.683 25.8105H110.674C110.674 28.4107 113.11 29.9473 115.696 30.2656V32.3385H117.705V30.2596C119.959 29.9603 122.726 28.6598 122.726 25.8105C122.726 22.9613 119.959 21.6618 117.705 21.3625V16.3701C119.04 16.6101 120.717 17.3151 120.717 18.7804V18.7804ZM112.683 18.7804C112.683 17.3151 114.36 16.6101 115.696 16.3701V21.1897C114.319 20.9357 112.683 20.1834 112.683 18.7804ZM120.717 25.8105C120.717 27.2758 119.04 27.9808 117.705 28.2209V23.4002C119.04 23.6402 120.717 24.3453 120.717 25.8105V25.8105Z" fill="#B78813"/>
<path d="M121.119 18.3788H123.128C123.128 15.5296 120.361 14.23 118.106 13.9307V11.8508H116.098V13.9307C113.843 14.23 111.076 15.5296 111.076 18.3788C111.076 21.0965 113.754 22.5095 116.098 22.8279V27.8193C114.643 27.5672 113.085 26.7909 113.085 25.4089H111.076C111.076 28.0091 113.512 29.5457 116.098 29.864V31.9369H118.106V29.858C120.361 29.5587 123.128 28.2581 123.128 25.4089C123.128 22.5597 120.361 21.2602 118.106 20.9609V15.9685C119.442 16.2085 121.119 16.9135 121.119 18.3788V18.3788ZM113.085 18.3788C113.085 16.9135 114.762 16.2085 116.098 15.9685V20.7881C114.721 20.534 113.085 19.7818 113.085 18.3788ZM121.119 25.4089C121.119 26.8742 119.442 27.5792 118.106 27.8193V22.9986C119.442 23.2386 121.119 23.9437 121.119 25.4089V25.4089Z" fill="#F7E714"/>
<path opacity="0.3" d="M126.938 37.062C114.805 37.062 104.888 27.1865 104.888 15.1035C104.888 9.75913 106.754 4.99565 109.904 1.16162C101.271 4.18237 95.0872 12.3151 95.0872 21.9583C95.0872 34.0413 105.004 43.9168 117.138 43.9168C124.022 43.9168 130.205 40.7799 134.172 35.9002C131.955 36.7135 129.505 37.062 126.938 37.062Z" fill="#B78813"/>
<path d="M147.788 61.9218C155.357 61.9218 161.492 55.8122 161.492 48.2755C161.492 40.7389 155.357 34.6292 147.788 34.6292C140.22 34.6292 134.085 40.7389 134.085 48.2755C134.085 55.8122 140.22 61.9218 147.788 61.9218Z" fill="#F7E714"/>
<path d="M147.789 60.8619C154.769 60.8619 160.428 55.2268 160.428 48.2755C160.428 41.3243 154.769 35.6891 147.789 35.6891C140.808 35.6891 135.149 41.3243 135.149 48.2755C135.149 55.2268 140.808 60.8619 147.789 60.8619Z" fill="#E5AE15"/>
<path d="M147.788 59.4044C141.801 59.4044 136.879 54.5023 136.879 48.5403C136.879 42.5784 141.801 37.6763 147.788 37.6763C153.775 37.6763 158.698 42.5784 158.698 48.5403C158.698 54.6348 153.775 59.4044 147.788 59.4044ZM147.788 38.2063C142.067 38.2063 137.278 42.8433 137.278 48.6728C137.278 54.3698 141.934 59.1394 147.788 59.1394C153.509 59.1394 158.299 54.5023 158.299 48.6728C158.166 42.8433 153.509 38.2063 147.788 38.2063Z" fill="#D8A61A"/>
<path d="M147.788 59.1395C141.801 59.1395 136.879 54.2374 136.879 48.2754C136.879 42.3135 141.801 37.4114 147.788 37.4114C153.775 37.4114 158.698 42.3135 158.698 48.2754C158.698 54.2374 153.775 59.1395 147.788 59.1395ZM147.788 37.8089C142.067 37.8089 137.278 42.446 137.278 48.2754C137.278 53.9724 141.934 58.742 147.788 58.742C153.509 58.742 158.299 54.1049 158.299 48.2754C158.166 42.446 153.509 37.8089 147.788 37.8089Z" fill="#F7E714"/>
<path d="M147.789 36.3516C154.707 36.3516 160.295 41.7836 160.428 48.673C160.428 48.5405 160.428 48.408 160.428 48.2756C160.428 41.2537 154.707 35.6891 147.789 35.6891C140.87 35.6891 135.149 41.3861 135.149 48.2756C135.149 48.408 135.149 48.5405 135.149 48.673C135.282 41.7836 140.87 36.3516 147.789 36.3516Z" fill="#B78813"/>
<path d="M148.593 42.4701H144.339V48.4254H143.03V49.7489H144.339V51.0723H143.03V52.3957H144.339V54.3808H145.648V52.3957H148.265V51.0723H145.648V49.7489H148.593C150.582 49.7489 152.192 48.1211 152.192 46.1095C152.192 44.0979 150.582 42.4701 148.593 42.4701ZM148.593 48.4254H145.648V43.7935H148.593C149.856 43.7935 150.883 44.8324 150.883 46.1095C150.883 47.3866 149.856 48.4254 148.593 48.4254Z" fill="#B78813"/>
<path d="M148.821 42.2418H144.567V48.1971H143.258V49.5205H144.567V50.8439H143.258V52.1673H144.567V54.1524H145.876V52.1673H148.494V50.8439H145.876V49.5205H148.821C150.811 49.5205 152.42 47.8927 152.42 45.8812C152.42 43.8696 150.811 42.2418 148.821 42.2418ZM148.821 48.1971H145.876V43.5652H148.821C150.084 43.5652 151.112 44.6041 151.112 45.8812C151.112 47.1582 150.084 48.1971 148.821 48.1971Z" fill="#F7E714"/>
<path opacity="0.3" d="M153.909 57.6818C146.325 57.6818 140.205 51.5873 140.205 44.0355C140.205 40.7233 141.402 37.6761 143.265 35.4238C137.943 37.2786 134.085 42.3132 134.085 48.2751C134.085 55.827 140.205 61.9214 147.788 61.9214C152.046 61.9214 155.904 59.9341 158.432 56.8869C156.969 57.4168 155.372 57.6818 153.909 57.6818Z" fill="#B78813"/>
<path d="M29.7757 179.57C36.4584 179.57 41.8757 174.175 41.8757 167.52C41.8757 160.866 36.4584 155.471 29.7757 155.471C23.0931 155.471 17.6758 160.866 17.6758 167.52C17.6758 174.175 23.0931 179.57 29.7757 179.57Z" fill="#F7E714"/>
<path d="M29.7751 178.696C35.9734 178.696 40.9982 173.692 40.9982 167.52C40.9982 161.348 35.9734 156.344 29.7751 156.344C23.5767 156.344 18.5519 161.348 18.5519 167.52C18.5519 173.692 23.5767 178.696 29.7751 178.696Z" fill="#E5AE15"/>
<path d="M29.7752 177.474C24.4266 177.474 20.1302 173.195 20.1302 167.869C20.1302 162.543 24.4266 158.265 29.7752 158.265C35.1237 158.265 39.4201 162.543 39.4201 167.869C39.4201 173.195 35.036 177.474 29.7752 177.474ZM29.7752 158.614C24.6897 158.614 20.5687 162.718 20.5687 167.782C20.5687 172.846 24.6897 176.95 29.7752 176.95C34.8607 176.95 38.9817 172.846 38.9817 167.782C38.9817 162.805 34.8607 158.614 29.7752 158.614Z" fill="#D8A61A"/>
<path d="M29.7752 177.212C24.4266 177.212 20.1302 172.933 20.1302 167.607C20.1302 162.281 24.4266 158.003 29.7752 158.003C35.1237 158.003 39.4201 162.281 39.4201 167.607C39.4201 172.933 35.036 177.212 29.7752 177.212ZM29.7752 158.352C24.6897 158.352 20.5687 162.456 20.5687 167.52C20.5687 172.584 24.6897 176.688 29.7752 176.688C34.8607 176.688 38.9817 172.584 38.9817 167.52C38.9817 162.456 34.8607 158.352 29.7752 158.352Z" fill="#F7E714"/>
<path d="M29.7751 157.042C35.8251 157.042 40.8229 161.845 40.9982 167.869C40.9982 167.782 40.9982 167.695 40.9982 167.52C40.9982 161.321 36.0004 156.344 29.7751 156.344C23.5497 156.344 18.5519 161.321 18.5519 167.52C18.5519 167.607 18.5519 167.695 18.5519 167.869C18.7272 161.845 23.6374 157.042 29.7751 157.042Z" fill="#B78813"/>
<path d="M29.5394 170.083L26.3928 168.224L29.5375 172.663L32.6857 168.224L29.5375 170.083H29.5394ZM29.5862 162.398L26.4409 167.626L29.5862 169.488L32.7328 167.627L29.5862 162.398Z" fill="#B78813"/>
<path d="M29.8406 169.933L26.694 168.073L29.8386 172.512L32.9868 168.073L29.8386 169.933H29.8406ZM29.8873 162.248L26.742 167.475L29.8873 169.338L33.0339 167.477L29.8873 162.248Z" fill="#F7E714"/>
</g>
<defs>
<clipPath id="clip0_1_448">
<rect width="266.944" height="420" fill="white"/>
</clipPath>
</defs>
</svg>
