<svg width="24" height="24" viewBox="0 0 24 24" fill="none" xmlns="http://www.w3.org/2000/svg">
<path d="M21.6254 6.25743C21.4412 5.09699 20.3803 4.08289 19.2062 3.94836C14.4148 3.42624 9.58085 3.42639 4.78949 3.94883C3.61958 4.08289 2.55871 5.0968 2.37355 6.26164C1.79116 10.0665 1.79138 13.9379 2.37421 17.7427C2.55862 18.9032 3.61958 19.9172 4.79343 20.0515C7.18668 20.3126 9.59236 20.4433 11.9998 20.4432C14.4073 20.4433 16.8129 20.3126 19.2062 20.0515L19.21 20.0511C20.38 19.9173 21.4411 18.9033 21.6261 17.7383C22.2085 13.9335 22.2083 10.0622 21.6254 6.25743ZM15.4158 12.624L10.9158 15.624C10.8028 15.6993 10.6716 15.7425 10.536 15.749C10.4004 15.7556 10.2656 15.7252 10.1459 15.6612C10.0262 15.5971 9.92619 15.5018 9.85643 15.3854C9.78667 15.2689 9.74982 15.1357 9.7498 15V8.99999C9.74981 8.86424 9.78665 8.73103 9.85642 8.61457C9.92618 8.49812 10.0262 8.40278 10.1459 8.33873C10.2656 8.27468 10.4005 8.24432 10.5361 8.25088C10.6716 8.25744 10.8029 8.30068 10.9159 8.37599L15.4159 11.376C15.5186 11.4445 15.6028 11.5373 15.6611 11.6461C15.7193 11.755 15.7498 11.8765 15.7498 12C15.7498 12.1234 15.7193 12.245 15.6611 12.3539C15.6028 12.4627 15.5186 12.5555 15.4159 12.624H15.4158Z" fill="#2997F9"/>
</svg>
