<svg width="24" height="24" viewBox="0 0 24 24" fill="none" xmlns="http://www.w3.org/2000/svg">
<path d="M21.7498 5.96017C21.0326 6.26954 20.2521 6.4922 19.4482 6.57892C20.2828 6.08306 20.9079 5.2997 21.206 4.37579C20.4228 4.8417 19.5648 5.16841 18.6701 5.34142C18.2961 4.94163 17.8438 4.62315 17.3414 4.40581C16.839 4.18847 16.2972 4.07693 15.7498 4.07813C13.5349 4.07813 11.7537 5.87345 11.7537 8.07657C11.7537 8.38595 11.7912 8.69532 11.8521 8.99298C8.5357 8.81954 5.57789 7.23517 3.61148 4.80938C3.25318 5.42137 3.06542 6.1182 3.06773 6.82735C3.06773 8.21485 3.7732 9.43829 4.84898 10.1578C4.21501 10.1329 3.59588 9.9586 3.04195 9.64923V9.69845C3.04195 11.6414 4.41539 13.2516 6.24586 13.6219C5.90216 13.7112 5.54861 13.7568 5.19351 13.7578C4.93336 13.7578 4.68726 13.732 4.43882 13.6969C4.94507 15.2813 6.41929 16.432 8.17476 16.4695C6.80132 17.5453 5.08101 18.1781 3.21304 18.1781C2.87789 18.1781 2.56851 18.1664 2.24742 18.1289C4.01929 19.2656 6.12164 19.9219 8.3857 19.9219C15.7357 19.9219 19.7576 13.8328 19.7576 8.54767C19.7576 8.37423 19.7576 8.20079 19.7459 8.02735C20.524 7.45782 21.206 6.75235 21.7498 5.96017Z" fill="#2997F9"/>
</svg>
